<svg id="svg" version="1.1" xmlns="http://www.w3.org/2000/svg" xmlns:xlink="http://www.w3.org/1999/xlink" width="400" height="440" viewBox="0, 0, 400,440"><g id="svgg"><path id="path0" d="M158.800 2.771 C 158.800 4.758,158.978 5.721,159.429 6.171 C 159.774 6.517,159.859 6.800,159.616 6.800 C 159.373 6.800,159.071 6.530,158.945 6.200 C 158.669 5.481,147.600 5.286,147.600 6.000 C 147.600 6.220,147.330 6.400,147.000 6.400 C 146.670 6.400,146.400 6.670,146.400 7.000 C 146.400 7.330,146.220 7.600,146.000 7.600 C 145.760 7.600,145.600 9.200,145.600 11.600 L 145.600 15.600 137.200 15.600 C 132.265 15.600,128.800 15.754,128.800 15.973 C 128.800 16.179,128.305 16.404,127.700 16.473 C 126.836 16.573,126.573 16.836,126.473 17.700 C 126.404 18.305,126.179 18.800,125.973 18.800 C 125.768 18.800,125.600 20.330,125.600 22.200 L 125.600 25.600 118.800 25.600 C 115.060 25.600,112.000 25.757,112.000 25.949 C 112.000 26.141,111.115 26.383,110.033 26.487 C 107.537 26.727,106.727 27.537,106.487 30.033 C 106.383 31.115,106.141 32.000,105.949 32.000 C 105.757 32.000,105.600 32.810,105.600 33.800 L 105.600 35.600 100.633 35.600 C 97.305 35.600,95.617 35.749,95.516 36.051 C 95.434 36.299,94.429 36.592,93.283 36.702 C 92.137 36.812,91.200 37.039,91.200 37.208 C 91.200 37.376,90.728 37.632,90.152 37.776 C 88.823 38.110,88.110 38.823,87.776 40.152 C 87.632 40.728,87.353 41.200,87.157 41.200 C 86.960 41.200,86.798 41.785,86.795 42.500 C 86.781 45.623,86.818 45.600,81.753 45.600 C 75.863 45.600,75.600 45.806,75.600 50.400 C 75.600 52.978,75.717 53.600,76.200 53.600 C 76.530 53.600,76.800 53.780,76.800 54.000 C 76.800 54.220,76.550 54.400,76.243 54.400 C 75.937 54.400,75.574 54.850,75.436 55.400 C 75.194 56.362,74.400 56.822,74.400 56.000 C 74.400 55.780,73.571 55.600,72.557 55.600 C 71.112 55.600,70.762 55.725,70.937 56.180 C 71.085 56.567,70.967 56.685,70.580 56.537 C 70.261 56.414,70.000 56.154,70.000 55.957 C 70.000 55.761,67.300 55.600,64.000 55.600 C 60.267 55.600,58.000 55.751,58.000 56.000 C 58.000 56.220,57.713 56.400,57.363 56.400 C 57.012 56.400,56.631 56.760,56.516 57.200 C 56.401 57.640,56.148 58.000,55.953 58.000 C 55.759 58.000,55.600 59.710,55.600 61.800 L 55.600 65.600 48.400 65.600 C 43.867 65.600,41.200 65.748,41.200 66.000 C 41.200 66.220,40.550 66.400,39.756 66.400 C 37.759 66.400,36.416 67.723,36.407 69.700 C 36.403 70.525,36.220 71.200,36.000 71.200 C 35.780 71.200,35.600 72.190,35.600 73.400 L 35.600 75.600 31.171 75.600 C 26.826 75.600,25.600 75.934,25.600 77.119 C 25.600 77.326,24.839 77.597,23.909 77.722 C 22.978 77.846,22.153 78.140,22.075 78.374 C 21.997 78.608,21.687 78.800,21.385 78.800 C 20.674 78.800,18.800 80.674,18.800 81.385 C 18.800 81.687,18.608 81.997,18.374 82.075 C 18.140 82.153,17.846 82.978,17.722 83.909 C 17.527 85.357,17.359 85.600,16.547 85.600 L 15.600 85.600 15.600 99.395 C 15.600 116.157,15.099 114.800,21.289 114.800 C 25.333 114.800,25.600 114.849,25.600 115.600 C 25.600 116.040,25.756 116.400,25.946 116.400 C 26.137 116.400,26.380 117.627,26.488 119.127 C 26.702 122.128,27.548 123.600,29.056 123.600 C 29.538 123.600,29.998 123.793,30.076 124.029 C 30.168 124.303,32.992 124.541,37.910 124.690 L 45.600 124.922 45.600 127.861 C 45.600 129.554,45.770 130.800,46.000 130.800 C 46.220 130.800,46.400 131.300,46.400 131.911 C 46.400 134.355,47.254 134.585,56.900 134.739 L 65.600 134.878 65.600 138.639 C 65.600 140.708,65.760 142.400,65.957 142.400 C 66.153 142.400,66.421 142.828,66.552 143.352 C 66.890 144.696,67.565 144.788,77.100 144.795 L 85.600 144.800 85.600 149.000 C 85.600 151.533,85.759 153.200,86.000 153.200 C 86.220 153.200,86.400 153.449,86.400 153.753 C 86.400 154.578,87.708 154.788,92.857 154.795 C 97.786 154.800,98.000 154.885,98.000 156.833 C 98.000 157.255,98.180 157.600,98.400 157.600 C 98.620 157.600,98.800 157.876,98.800 158.213 C 98.800 158.549,99.070 158.929,99.400 159.055 C 99.730 159.182,100.000 159.607,100.000 159.999 C 100.000 160.427,100.401 160.814,101.000 160.964 C 101.550 161.102,102.000 161.390,102.000 161.603 C 102.000 161.816,102.715 162.105,103.589 162.245 C 104.731 162.427,105.252 162.738,105.443 163.349 C 105.858 164.683,106.294 164.787,111.442 164.794 L 116.285 164.800 116.516 167.860 C 116.643 169.543,116.915 171.028,117.120 171.160 C 117.325 171.292,117.617 171.799,117.769 172.286 C 117.963 172.910,118.482 173.253,119.523 173.444 C 120.335 173.593,121.106 173.878,121.236 174.077 C 121.365 174.276,124.650 174.548,128.536 174.682 L 135.600 174.924 135.600 177.462 C 135.600 178.887,135.775 180.000,136.000 180.000 C 136.220 180.000,136.402 180.405,136.405 180.900 C 136.415 182.398,136.863 183.600,137.413 183.600 C 137.699 183.600,138.007 183.822,138.098 184.094 C 138.220 184.460,140.516 184.628,146.931 184.739 L 155.600 184.889 155.600 188.445 C 155.600 190.400,155.758 192.000,155.950 192.000 C 156.143 192.000,156.403 192.515,156.529 193.144 C 156.832 194.658,157.726 194.790,167.700 194.796 L 175.600 194.800 175.600 199.000 C 175.600 201.533,175.759 203.200,176.000 203.200 C 176.220 203.200,176.400 203.449,176.400 203.753 C 176.400 204.728,177.812 204.789,200.400 204.789 C 222.988 204.789,224.400 204.728,224.400 203.753 C 224.400 203.449,224.580 203.200,224.800 203.200 C 225.041 203.200,225.200 201.542,225.200 199.027 L 225.200 194.855 234.129 194.727 C 243.534 194.593,244.400 194.416,244.400 192.629 C 244.400 192.283,244.580 192.000,244.800 192.000 C 245.037 192.000,245.200 190.547,245.200 188.440 L 245.200 184.881 253.667 184.740 C 259.982 184.636,262.176 184.473,262.300 184.100 C 262.392 183.825,262.722 183.600,263.033 183.600 C 263.345 183.600,263.600 183.330,263.600 183.000 C 263.600 182.670,263.780 182.400,264.000 182.400 C 264.220 182.400,264.400 181.860,264.400 181.200 C 264.400 180.540,264.580 180.000,264.800 180.000 C 265.025 180.000,265.200 178.887,265.200 177.461 L 265.200 174.922 272.059 174.690 C 275.831 174.562,279.026 174.293,279.159 174.092 C 279.291 173.891,279.995 173.610,280.723 173.468 C 282.434 173.135,283.194 172.344,283.477 170.604 C 283.602 169.832,283.861 169.200,284.052 169.200 C 284.244 169.200,284.400 168.210,284.400 167.000 L 284.400 164.800 289.300 164.794 C 294.507 164.787,294.941 164.684,295.357 163.349 C 295.546 162.743,296.067 162.428,297.168 162.252 C 298.017 162.116,298.817 161.733,298.944 161.402 C 299.071 161.071,299.541 160.800,299.987 160.800 C 300.538 160.800,300.800 160.538,300.800 159.987 C 300.800 159.541,301.065 159.073,301.389 158.949 C 301.713 158.824,302.101 158.070,302.251 157.271 C 302.685 154.953,303.044 154.801,308.071 154.795 C 313.094 154.788,314.400 154.574,314.400 153.753 C 314.400 153.449,314.580 153.200,314.800 153.200 C 315.041 153.200,315.200 151.540,315.200 149.021 L 315.200 144.843 324.129 144.721 C 333.313 144.597,334.400 144.396,334.400 142.829 C 334.400 142.593,334.580 142.400,334.800 142.400 C 335.038 142.400,335.200 140.880,335.200 138.639 L 335.200 134.878 343.900 134.739 C 353.479 134.586,354.400 134.328,354.400 131.800 C 354.400 131.250,354.580 130.800,354.800 130.800 C 355.030 130.800,355.200 129.554,355.200 127.861 L 355.200 124.922 362.858 124.691 C 367.070 124.564,370.625 124.294,370.758 124.091 C 370.891 123.889,371.500 123.601,372.112 123.451 C 372.932 123.250,373.287 122.866,373.462 121.989 C 373.593 121.335,373.858 120.800,374.050 120.800 C 374.243 120.800,374.400 119.810,374.400 118.600 C 374.400 117.390,374.580 116.400,374.800 116.400 C 375.020 116.400,375.200 116.040,375.200 115.600 C 375.200 114.852,375.467 114.800,379.339 114.800 C 385.712 114.800,385.200 116.140,385.200 99.453 L 385.200 85.600 384.200 85.600 C 383.356 85.600,383.200 85.413,383.200 84.400 C 383.200 83.740,383.034 83.200,382.832 83.200 C 382.629 83.200,382.345 82.660,382.200 82.000 C 382.055 81.340,381.783 80.800,381.595 80.800 C 381.407 80.800,381.143 80.449,381.006 80.020 C 380.870 79.592,380.363 79.117,379.880 78.967 C 379.396 78.816,378.891 78.523,378.758 78.316 C 378.624 78.109,377.769 77.839,376.858 77.717 C 375.946 77.595,375.200 77.326,375.200 77.119 C 375.200 75.934,373.974 75.600,369.629 75.600 L 365.200 75.600 365.200 73.400 C 365.200 72.190,365.020 71.200,364.800 71.200 C 364.580 71.200,364.400 70.561,364.400 69.781 C 364.400 67.834,362.848 66.400,360.742 66.400 C 359.894 66.400,359.200 66.220,359.200 66.000 C 359.200 65.749,356.600 65.600,352.200 65.600 L 345.200 65.600 345.200 61.800 C 345.200 59.533,345.039 58.000,344.800 58.000 C 344.580 58.000,344.400 57.733,344.400 57.408 C 344.400 57.082,343.950 56.702,343.400 56.564 C 342.850 56.426,342.400 56.153,342.400 55.957 C 342.400 55.292,331.221 55.522,330.543 56.200 C 330.213 56.530,329.731 56.786,329.471 56.768 C 329.140 56.746,329.148 56.677,329.500 56.535 C 330.591 56.095,329.904 55.600,328.200 55.600 C 327.210 55.600,326.400 55.780,326.400 56.000 C 326.400 56.822,325.606 56.362,325.364 55.400 C 325.207 54.774,324.830 54.400,324.357 54.400 C 323.940 54.400,323.600 54.220,323.600 54.000 C 323.600 53.780,323.960 53.600,324.400 53.600 C 325.137 53.600,325.200 53.333,325.200 50.227 C 325.200 47.205,325.117 46.827,324.400 46.600 C 323.960 46.460,323.600 46.178,323.600 45.973 C 323.600 45.764,321.578 45.600,319.000 45.600 C 315.178 45.600,314.400 45.499,314.400 45.000 C 314.400 44.670,314.243 44.400,314.051 44.400 C 313.859 44.400,313.613 43.481,313.506 42.357 C 313.398 41.234,313.129 40.199,312.909 40.057 C 312.688 39.916,312.383 39.401,312.231 38.914 C 312.042 38.308,311.520 37.946,310.577 37.769 C 309.820 37.627,309.200 37.376,309.200 37.211 C 309.200 37.046,308.256 36.800,307.102 36.663 C 305.949 36.526,304.944 36.231,304.869 36.007 C 304.787 35.761,302.846 35.600,299.967 35.600 L 295.200 35.600 295.200 33.800 C 295.200 32.810,295.020 32.000,294.800 32.000 C 294.580 32.000,294.400 31.280,294.400 30.400 C 294.400 29.520,294.240 28.800,294.043 28.800 C 293.847 28.800,293.579 28.372,293.448 27.848 C 293.193 26.834,292.219 26.414,290.100 26.405 C 289.385 26.402,288.800 26.220,288.800 26.000 C 288.800 25.749,286.267 25.600,282.000 25.600 L 275.200 25.600 275.200 22.200 C 275.200 20.200,275.035 18.800,274.800 18.800 C 274.580 18.800,274.400 18.345,274.400 17.790 C 274.400 16.988,274.153 16.731,273.200 16.540 C 272.540 16.408,272.000 16.142,272.000 15.950 C 272.000 15.758,268.220 15.600,263.600 15.600 L 255.200 15.600 255.200 11.600 C 255.200 9.200,255.040 7.600,254.800 7.600 C 254.580 7.600,254.400 7.330,254.400 7.000 C 254.400 6.670,254.130 6.400,253.800 6.400 C 253.470 6.400,253.200 6.220,253.200 6.000 C 253.200 5.752,251.067 5.600,247.600 5.600 C 244.520 5.600,242.000 5.761,242.000 5.957 C 242.000 6.154,241.739 6.414,241.420 6.537 C 241.033 6.685,240.915 6.567,241.063 6.180 C 241.186 5.861,241.446 5.600,241.643 5.600 C 241.839 5.600,242.000 4.340,242.000 2.800 C 242.000 0.578,241.876 0.000,241.400 0.000 C 240.928 0.000,240.800 0.559,240.800 2.629 C 240.800 4.498,240.616 5.441,240.164 5.893 C 239.209 6.848,238.813 5.917,238.806 2.700 L 238.800 0.000 237.200 0.000 L 235.600 0.000 235.594 2.700 C 235.587 5.917,235.191 6.848,234.236 5.893 C 233.784 5.441,233.600 4.498,233.600 2.629 C 233.600 -1.341,232.488 -1.110,232.297 2.900 L 232.159 5.800 232.079 2.900 L 232.000 0.000 200.400 0.000 L 168.800 0.000 168.800 2.800 C 168.800 4.400,168.629 5.600,168.400 5.600 C 168.171 5.600,168.000 4.400,168.000 2.800 C 168.000 0.578,167.876 0.000,167.400 0.000 C 166.927 0.000,166.799 0.569,166.794 2.700 C 166.791 4.185,166.611 5.670,166.394 6.000 C 165.707 7.046,165.213 5.672,165.206 2.700 L 165.200 0.000 163.600 0.000 L 162.000 0.000 162.000 2.629 C 162.000 4.229,161.800 5.457,161.489 5.769 C 160.579 6.679,160.000 5.454,160.000 2.617 C 160.000 0.557,159.872 0.000,159.400 0.000 C 158.924 0.000,158.800 0.575,158.800 2.771 M132.080 22.080 C 131.855 22.306,131.450 22.417,131.181 22.327 C 130.841 22.214,130.917 21.941,131.429 21.429 C 131.941 20.917,132.214 20.841,132.327 21.181 C 132.417 21.450,132.306 21.855,132.080 22.080 M269.307 21.600 C 270.002 22.412,269.778 22.597,268.633 22.157 C 267.996 21.913,267.732 20.800,268.311 20.800 C 268.482 20.800,268.930 21.160,269.307 21.600 M322.000 48.200 C 322.000 48.530,321.820 48.800,321.600 48.800 C 321.380 48.800,321.200 48.530,321.200 48.200 C 321.200 47.870,321.380 47.600,321.600 47.600 C 321.820 47.600,322.000 47.870,322.000 48.200 M80.000 49.600 C 80.000 49.820,79.820 50.000,79.600 50.000 C 79.380 50.000,79.186 50.495,79.168 51.100 C 79.151 51.705,79.043 51.967,78.929 51.683 C 78.644 50.971,79.127 49.200,79.608 49.200 C 79.823 49.200,80.000 49.380,80.000 49.600 M322.000 51.171 C 322.000 51.627,321.820 52.000,321.600 52.000 C 321.380 52.000,321.200 51.655,321.200 51.233 C 321.200 50.811,321.075 50.136,320.922 49.733 C 320.662 49.046,320.688 49.043,321.322 49.671 C 321.695 50.041,322.000 50.716,322.000 51.171 M44.210 74.216 C 42.731 75.611,42.000 75.937,42.000 75.200 C 42.000 74.980,42.276 74.800,42.613 74.800 C 42.949 74.800,43.326 74.537,43.450 74.215 C 43.573 73.894,44.017 73.521,44.437 73.388 C 44.857 73.255,45.214 72.843,45.232 72.473 C 45.252 72.032,45.334 71.978,45.470 72.316 C 45.584 72.600,45.017 73.455,44.210 74.216 M356.716 73.872 C 357.266 74.383,357.961 74.800,358.258 74.800 C 358.556 74.800,358.800 74.980,358.800 75.200 C 358.800 75.955,357.959 75.599,356.580 74.260 C 355.821 73.522,355.214 72.667,355.232 72.360 C 355.258 71.893,355.301 71.895,355.489 72.372 C 355.613 72.687,356.165 73.362,356.716 73.872 M360.210 72.648 C 359.853 73.004,359.441 73.174,359.293 73.026 C 359.144 72.878,359.288 72.589,359.612 72.384 C 360.557 71.787,360.913 71.944,360.210 72.648 M25.100 79.076 C 24.715 79.176,24.400 79.425,24.400 79.629 C 24.400 79.833,24.206 80.000,23.968 80.000 C 23.406 80.000,20.000 83.406,20.000 83.968 C 20.000 84.206,19.833 84.400,19.629 84.400 C 19.425 84.400,19.182 84.625,19.088 84.900 C 18.994 85.175,18.994 84.950,19.088 84.400 C 19.182 83.850,19.426 83.340,19.630 83.267 C 19.833 83.193,20.000 82.954,20.000 82.736 C 20.000 82.201,22.228 80.000,22.769 80.000 C 23.006 80.000,23.200 79.833,23.200 79.629 C 23.200 79.245,24.157 78.893,25.200 78.893 C 25.588 78.893,25.552 78.958,25.100 79.076 M377.533 79.630 C 377.607 79.833,377.825 80.000,378.020 80.000 C 378.681 80.000,380.770 82.341,381.029 83.372 C 381.171 83.938,381.447 84.400,381.643 84.400 C 381.840 84.400,382.000 84.670,382.000 85.000 C 382.000 85.978,381.308 85.683,381.032 84.587 C 380.775 83.562,377.470 80.000,376.776 80.000 C 376.569 80.000,376.400 79.833,376.400 79.629 C 376.400 79.425,376.175 79.182,375.900 79.088 C 375.625 78.994,375.850 78.994,376.400 79.088 C 376.950 79.182,377.460 79.426,377.533 79.630 M24.867 83.539 C 23.145 85.127,22.701 86.400,23.867 86.400 C 24.233 86.400,24.427 86.506,24.297 86.637 C 23.900 87.034,22.489 86.410,22.225 85.720 C 21.936 84.968,24.870 82.000,25.900 82.000 C 26.298 82.000,25.915 82.571,24.867 83.539 M27.600 82.600 C 27.600 82.930,27.420 83.200,27.200 83.200 C 26.980 83.200,26.800 82.930,26.800 82.600 C 26.800 82.270,26.980 82.000,27.200 82.000 C 27.420 82.000,27.600 82.270,27.600 82.600 M377.368 83.832 C 378.376 84.839,379.197 85.874,379.194 86.132 C 379.190 86.401,379.027 86.346,378.810 86.002 C 378.484 85.486,378.356 85.507,377.881 86.157 C 377.578 86.571,377.076 86.810,376.765 86.687 C 376.349 86.522,376.384 86.455,376.900 86.432 C 378.060 86.379,377.696 85.292,375.952 83.600 C 374.927 82.605,374.537 82.000,374.920 82.000 C 375.259 82.000,376.361 82.824,377.368 83.832 M26.557 84.233 C 26.937 85.222,26.847 85.600,26.233 85.600 C 25.922 85.600,25.576 85.825,25.465 86.100 C 25.354 86.375,25.249 86.195,25.232 85.700 C 25.211 85.109,25.440 84.789,25.900 84.768 C 26.318 84.750,26.399 84.656,26.100 84.535 C 25.528 84.304,25.420 83.600,25.957 83.600 C 26.154 83.600,26.424 83.885,26.557 84.233 M375.233 84.800 C 375.435 84.800,375.586 85.205,375.568 85.700 C 375.551 86.195,375.446 86.375,375.335 86.100 C 375.224 85.825,374.788 85.600,374.367 85.600 C 373.929 85.600,373.600 85.324,373.600 84.957 C 373.600 84.535,373.818 84.398,374.233 84.557 C 374.581 84.691,375.031 84.800,375.233 84.800 M20.800 86.000 C 20.800 86.220,20.725 86.400,20.633 86.400 C 20.541 86.400,20.142 86.524,19.746 86.676 C 19.103 86.923,19.089 86.882,19.613 86.291 C 20.281 85.539,20.800 85.412,20.800 86.000 M0.000 244.400 L 0.000 353.200 2.800 353.200 C 4.927 353.200,5.600 353.334,5.600 353.757 C 5.600 354.626,6.538 354.800,11.233 354.800 L 15.600 354.800 15.600 358.995 C 15.600 364.803,15.597 364.800,21.631 364.800 L 26.285 364.800 26.516 367.860 C 26.643 369.543,26.915 371.028,27.120 371.160 C 27.325 371.292,27.617 371.799,27.769 372.286 C 27.963 372.910,28.482 373.253,29.523 373.444 C 30.335 373.593,31.106 373.878,31.236 374.077 C 31.365 374.276,34.650 374.548,38.536 374.682 L 45.600 374.924 45.600 378.062 C 45.600 379.887,45.767 381.200,46.000 381.200 C 46.220 381.200,46.400 381.610,46.400 382.111 C 46.400 384.334,47.421 384.589,56.900 384.728 L 65.600 384.856 65.600 389.028 C 65.600 391.543,65.759 393.200,66.000 393.200 C 66.220 393.200,66.400 393.449,66.400 393.753 C 66.400 394.558,67.696 394.788,72.257 394.795 C 76.725 394.801,76.800 394.844,76.800 397.433 C 76.800 398.185,76.980 398.800,77.200 398.800 C 77.420 398.800,77.600 399.187,77.600 399.660 C 77.600 401.303,80.078 403.156,82.673 403.454 C 83.953 403.601,85.128 403.919,85.285 404.161 C 85.458 404.429,87.523 404.652,90.585 404.733 L 95.600 404.865 95.600 407.833 C 95.600 409.544,95.769 410.800,96.000 410.800 C 96.220 410.800,96.400 411.300,96.400 411.911 C 96.400 414.355,97.254 414.585,106.900 414.739 L 115.600 414.878 115.600 419.039 C 115.600 421.546,115.759 423.200,116.000 423.200 C 116.220 423.200,116.400 423.449,116.400 423.753 C 116.400 424.558,117.696 424.788,122.257 424.795 C 126.725 424.801,126.800 424.844,126.800 427.433 C 126.800 428.185,126.980 428.800,127.200 428.800 C 127.420 428.800,127.600 429.187,127.600 429.660 C 127.600 431.303,130.078 433.156,132.673 433.454 C 133.953 433.601,135.128 433.919,135.285 434.161 C 135.458 434.429,137.523 434.652,140.585 434.733 L 145.600 434.865 145.600 437.433 L 145.600 440.000 165.400 440.000 L 185.200 440.000 185.200 333.800 C 185.200 263.267,185.066 227.600,184.800 227.600 C 184.580 227.600,184.400 227.330,184.400 227.000 C 184.400 226.670,184.130 226.400,183.800 226.400 C 183.470 226.400,183.200 226.220,183.200 226.000 C 183.200 225.760,181.600 225.600,179.200 225.600 L 175.200 225.600 175.200 224.400 C 175.200 223.740,175.020 223.200,174.800 223.200 C 174.580 223.200,174.400 222.300,174.400 221.200 C 174.400 220.100,174.220 219.200,174.000 219.200 C 173.780 219.200,173.600 218.970,173.600 218.689 C 173.600 217.660,171.825 216.651,169.708 216.476 C 168.549 216.380,167.600 216.143,167.600 215.950 C 167.600 215.758,164.810 215.600,161.400 215.600 L 155.200 215.600 155.200 212.200 C 155.200 210.200,155.035 208.800,154.800 208.800 C 154.580 208.800,154.400 208.346,154.400 207.790 C 154.400 206.988,154.153 206.731,153.200 206.540 C 152.540 206.408,152.000 206.143,152.000 205.950 C 152.000 205.757,148.220 205.600,143.600 205.600 L 135.200 205.600 135.200 201.227 C 135.200 197.205,135.136 196.834,134.400 196.600 C 133.960 196.460,133.600 196.178,133.600 195.973 C 133.600 195.764,131.578 195.600,129.000 195.600 C 125.178 195.600,124.400 195.499,124.400 195.000 C 124.400 194.670,124.243 194.400,124.051 194.400 C 123.859 194.400,123.613 193.481,123.506 192.357 C 123.398 191.234,123.129 190.199,122.909 190.057 C 122.688 189.916,122.383 189.401,122.231 188.914 C 122.042 188.308,121.520 187.946,120.577 187.769 C 119.820 187.627,119.200 187.374,119.200 187.208 C 119.200 187.041,118.351 186.808,117.313 186.691 C 116.275 186.574,115.360 186.281,115.280 186.039 C 115.184 185.752,113.419 185.600,110.167 185.600 L 105.200 185.600 105.200 183.200 C 105.200 181.867,105.022 180.800,104.800 180.800 C 104.580 180.800,104.400 180.170,104.400 179.400 C 104.400 178.630,104.220 178.000,104.000 178.000 C 103.780 178.000,103.600 177.751,103.600 177.447 C 103.600 176.867,102.427 176.415,100.900 176.405 C 100.405 176.402,100.000 176.220,100.000 176.000 C 100.000 175.748,97.267 175.600,92.600 175.600 L 85.200 175.600 85.200 171.800 C 85.200 169.533,85.039 168.000,84.800 168.000 C 84.580 168.000,84.400 167.733,84.400 167.408 C 84.400 167.082,83.950 166.702,83.400 166.564 C 82.850 166.426,82.400 166.153,82.400 165.957 C 82.400 165.760,79.790 165.600,76.600 165.600 C 73.279 165.600,70.800 165.441,70.800 165.227 C 70.800 165.022,70.440 164.740,70.000 164.600 C 69.560 164.460,69.200 164.115,69.200 163.831 C 69.200 163.214,67.400 161.200,66.848 161.200 C 65.927 161.200,65.200 159.864,65.200 158.171 C 65.200 156.667,65.080 156.400,64.400 156.400 C 63.960 156.400,63.600 156.220,63.600 156.000 C 63.600 155.760,61.990 155.600,59.571 155.600 C 54.723 155.600,54.400 155.389,54.400 152.229 C 54.400 151.003,54.234 150.000,54.032 150.000 C 53.829 150.000,53.545 149.460,53.400 148.800 C 53.255 148.140,52.896 147.600,52.602 147.600 C 52.307 147.600,51.993 147.380,51.904 147.111 C 51.801 146.802,50.612 146.566,48.670 146.468 C 46.982 146.382,45.600 146.152,45.600 145.956 C 45.600 145.760,43.260 145.600,40.400 145.600 L 35.200 145.600 35.200 142.400 C 35.200 140.533,35.033 139.200,34.800 139.200 C 34.580 139.200,34.400 138.932,34.400 138.605 C 34.400 137.651,33.101 136.400,32.111 136.400 C 31.610 136.400,31.200 136.220,31.200 136.000 C 31.200 135.740,25.733 135.600,15.600 135.600 L 0.000 135.600 0.000 244.400 M369.200 135.950 C 369.200 136.143,368.656 136.409,367.992 136.542 C 367.047 136.731,366.731 137.047,366.542 137.992 C 366.409 138.656,366.143 139.200,365.950 139.200 C 365.757 139.200,365.600 140.640,365.600 142.400 L 365.600 145.600 360.400 145.600 C 357.540 145.600,355.200 145.760,355.200 145.956 C 355.200 146.152,353.818 146.382,352.130 146.468 C 350.188 146.566,348.999 146.802,348.896 147.111 C 348.807 147.380,348.478 147.600,348.167 147.600 C 347.855 147.600,347.600 147.855,347.600 148.167 C 347.600 148.478,347.386 148.805,347.124 148.892 C 346.841 148.986,346.576 150.172,346.472 151.806 C 346.236 155.505,346.100 155.600,341.029 155.600 C 338.476 155.600,336.800 155.759,336.800 156.000 C 336.800 156.220,336.530 156.400,336.200 156.400 C 335.757 156.400,335.600 156.863,335.600 158.171 C 335.600 159.873,334.873 161.200,333.941 161.200 C 333.452 161.200,331.200 163.402,331.200 163.880 C 331.200 165.223,329.578 165.600,323.795 165.600 C 320.608 165.600,318.000 165.759,318.000 165.953 C 318.000 166.148,317.640 166.401,317.200 166.516 C 316.760 166.631,316.400 167.012,316.400 167.363 C 316.400 167.713,316.220 168.000,316.000 168.000 C 315.761 168.000,315.600 169.533,315.600 171.800 L 315.600 175.600 308.200 175.600 C 304.130 175.600,300.800 175.757,300.800 175.948 C 300.800 176.139,299.981 176.388,298.980 176.501 C 296.745 176.753,296.753 176.745,296.501 178.980 C 296.388 179.981,296.139 180.800,295.948 180.800 C 295.757 180.800,295.600 181.880,295.600 183.200 L 295.600 185.600 290.600 185.600 C 287.850 185.600,285.600 185.762,285.600 185.961 C 285.600 186.159,284.520 186.447,283.200 186.600 C 281.880 186.753,280.800 187.041,280.800 187.239 C 280.800 187.438,280.485 187.603,280.100 187.607 C 279.236 187.615,277.600 189.283,277.600 190.156 C 277.600 190.510,277.438 190.800,277.239 190.800 C 277.041 190.800,276.753 191.880,276.600 193.200 L 276.321 195.600 271.761 195.600 C 265.666 195.600,265.600 195.662,265.600 201.400 L 265.600 205.600 257.200 205.600 C 252.265 205.600,248.800 205.754,248.800 205.973 C 248.800 206.179,248.305 206.404,247.700 206.473 C 246.836 206.573,246.573 206.836,246.473 207.700 C 246.404 208.305,246.179 208.800,245.973 208.800 C 245.768 208.800,245.600 210.330,245.600 212.200 L 245.600 215.600 239.000 215.600 C 235.370 215.600,232.400 215.758,232.400 215.950 C 232.400 216.143,231.429 216.381,230.242 216.480 C 227.456 216.711,226.711 217.456,226.480 220.242 C 226.381 221.429,226.143 222.400,225.950 222.400 C 225.758 222.400,225.600 223.120,225.600 224.000 L 225.600 225.600 221.600 225.600 C 219.200 225.600,217.600 225.760,217.600 226.000 C 217.600 226.220,217.330 226.400,217.000 226.400 C 216.670 226.400,216.400 226.670,216.400 227.000 C 216.400 227.330,216.220 227.600,216.000 227.600 C 215.734 227.600,215.600 263.267,215.600 333.800 L 215.600 440.000 235.400 440.000 L 255.200 440.000 255.200 437.433 L 255.200 434.865 260.215 434.733 C 263.277 434.652,265.342 434.429,265.515 434.161 C 265.672 433.919,266.830 433.603,268.089 433.458 C 271.328 433.087,273.083 431.335,273.464 428.094 C 273.835 424.940,274.054 424.801,278.671 424.795 C 283.106 424.788,284.400 424.553,284.400 423.753 C 284.400 423.449,284.580 423.200,284.800 423.200 C 285.041 423.200,285.200 421.542,285.200 419.027 L 285.200 414.855 294.129 414.727 C 305.115 414.571,304.517 414.894,304.736 408.990 L 304.887 404.907 312.882 404.715 C 317.654 404.600,320.982 404.358,321.138 404.115 C 321.282 403.891,321.805 403.582,322.299 403.427 C 322.794 403.273,323.308 402.709,323.442 402.173 C 323.577 401.638,323.847 401.200,324.043 401.200 C 324.240 401.200,324.400 400.390,324.400 399.400 C 324.400 398.410,324.580 397.600,324.800 397.600 C 325.020 397.600,325.200 396.970,325.200 396.200 L 325.200 394.800 329.771 394.800 C 333.427 394.800,334.471 394.672,334.982 394.160 C 335.334 393.809,336.337 393.425,337.211 393.308 C 338.085 393.191,338.800 392.938,338.800 392.747 C 338.800 392.556,339.056 392.400,339.369 392.400 C 340.108 392.400,342.400 390.108,342.400 389.369 C 342.400 389.056,342.557 388.800,342.748 388.800 C 342.940 388.800,343.216 387.900,343.362 386.800 L 343.628 384.800 348.114 384.795 C 353.095 384.788,354.400 384.572,354.400 383.753 C 354.400 383.449,354.580 383.200,354.800 383.200 C 355.041 383.200,355.200 381.540,355.200 379.021 L 355.200 374.843 364.129 374.721 C 373.313 374.597,374.400 374.396,374.400 372.829 C 374.400 372.593,374.580 372.400,374.800 372.400 C 375.038 372.400,375.200 370.885,375.200 368.654 L 375.200 364.907 381.437 364.718 C 384.976 364.610,387.788 364.353,387.937 364.124 C 388.082 363.902,388.945 363.623,389.856 363.504 C 392.041 363.219,393.257 361.967,393.507 359.745 C 393.616 358.785,393.861 358.000,394.052 358.000 C 394.243 358.000,394.400 357.280,394.400 356.400 C 394.400 355.520,394.580 354.800,394.800 354.800 C 395.020 354.800,395.200 354.530,395.200 354.200 C 395.200 353.733,395.733 353.600,397.600 353.600 L 400.000 353.600 400.000 244.600 L 400.000 135.600 384.600 135.600 C 376.067 135.600,369.200 135.756,369.200 135.950 M30.484 139.414 C 30.768 139.752,31.238 140.292,31.529 140.614 C 32.545 141.741,31.476 141.189,30.340 140.000 C 29.709 139.340,29.368 138.800,29.581 138.800 C 29.794 138.800,30.201 139.076,30.484 139.414 M28.986 141.822 C 29.593 142.384,29.989 142.944,29.867 143.067 C 29.673 143.261,27.600 141.317,27.600 140.942 C 27.600 140.634,27.929 140.843,28.986 141.822 M30.800 144.000 C 30.800 144.220,30.725 144.400,30.633 144.400 C 30.541 144.400,30.142 144.524,29.746 144.676 C 29.103 144.923,29.089 144.882,29.613 144.291 C 30.281 143.539,30.800 143.412,30.800 144.000 M45.394 149.980 C 45.530 150.408,46.020 150.879,46.483 151.026 C 47.509 151.352,49.200 153.115,49.200 153.858 C 49.200 154.156,49.335 154.403,49.500 154.406 C 50.540 154.427,50.909 155.148,50.229 155.829 C 49.548 156.509,48.827 156.140,48.806 155.100 C 48.791 154.346,47.994 154.902,47.946 155.700 L 47.891 156.600 47.718 155.700 C 47.535 154.750,46.822 154.449,46.768 155.300 C 46.743 155.700,46.696 155.700,46.535 155.300 C 46.244 154.579,45.684 154.685,45.483 155.500 C 45.388 155.885,45.350 155.795,45.400 155.300 C 45.453 154.764,45.269 154.400,44.945 154.400 C 44.305 154.400,44.205 153.332,44.825 153.125 C 45.477 152.908,45.564 150.822,44.948 150.205 C 44.310 149.567,44.246 149.200,44.773 149.200 C 44.978 149.200,45.257 149.551,45.394 149.980 M356.400 149.429 C 356.400 149.554,356.154 149.904,355.852 150.205 C 355.236 150.822,355.323 152.908,355.975 153.125 C 356.595 153.332,356.495 154.400,355.855 154.400 C 355.531 154.400,355.347 154.764,355.400 155.300 C 355.450 155.795,355.412 155.885,355.317 155.500 C 355.116 154.687,354.547 154.576,354.288 155.300 C 354.184 155.591,353.961 155.652,353.755 155.445 C 353.548 155.239,353.628 155.009,353.945 154.897 C 354.406 154.733,354.406 154.648,353.945 154.352 C 353.492 154.059,353.501 153.934,354.000 153.606 C 354.369 153.364,354.415 153.210,354.120 153.206 C 353.856 153.203,353.464 153.514,353.250 153.897 C 353.035 154.280,352.742 154.475,352.597 154.330 C 352.452 154.185,352.730 153.670,353.214 153.186 C 353.909 152.491,354.164 152.418,354.425 152.841 C 354.608 153.136,354.901 153.222,355.078 153.034 C 355.255 152.845,355.155 152.603,354.855 152.497 C 354.402 152.336,354.400 152.247,354.843 151.973 C 355.137 151.792,355.256 151.522,355.107 151.374 C 354.959 151.226,354.547 151.396,354.190 151.752 C 353.834 152.109,353.286 152.400,352.971 152.400 C 352.657 152.400,352.400 152.672,352.400 153.004 C 352.400 153.336,352.040 153.916,351.600 154.293 C 351.160 154.670,350.803 155.163,350.806 155.389 C 350.809 155.615,350.980 155.535,351.184 155.212 C 351.389 154.888,351.674 154.741,351.819 154.885 C 351.963 155.029,351.843 155.402,351.552 155.714 C 351.096 156.202,350.942 156.199,350.439 155.696 C 349.928 155.185,349.939 155.066,350.528 154.736 C 350.897 154.530,351.200 154.175,351.200 153.949 C 351.200 153.333,353.308 151.346,354.295 151.033 C 354.770 150.882,355.270 150.408,355.406 149.980 C 355.628 149.282,356.400 148.854,356.400 149.429 M45.600 151.419 C 45.600 151.651,47.618 153.600,47.858 153.600 C 47.936 153.600,48.000 153.330,48.000 153.000 C 48.000 152.670,47.724 152.400,47.387 152.400 C 47.051 152.400,46.671 152.130,46.545 151.800 C 46.328 151.236,45.600 150.942,45.600 151.419 M45.460 152.988 C 45.112 153.894,46.214 154.717,47.564 154.560 C 48.394 154.463,48.891 154.633,49.155 155.106 C 49.367 155.484,49.658 155.675,49.803 155.530 C 49.948 155.385,49.658 154.858,49.158 154.358 C 48.553 153.753,48.195 153.614,48.086 153.942 C 47.981 154.257,47.586 154.070,46.980 153.417 C 45.884 152.234,45.762 152.200,45.460 152.988 M353.282 155.486 C 353.185 155.989,352.969 156.400,352.800 156.400 C 352.631 156.400,352.415 155.989,352.318 155.486 C 352.194 154.834,352.332 154.571,352.800 154.571 C 353.268 154.571,353.406 154.834,353.282 155.486 M122.000 165.260 C 122.000 166.012,124.360 168.800,124.997 168.800 C 125.783 168.800,126.255 167.798,125.721 167.264 C 125.059 166.601,125.312 166.204,126.183 166.538 C 126.977 166.843,126.972 167.771,126.171 168.571 C 125.224 169.519,124.653 169.352,122.848 167.600 C 121.327 166.124,120.654 164.400,121.600 164.400 C 121.820 164.400,122.000 164.787,122.000 165.260 M124.400 165.243 C 124.400 165.439,124.580 165.600,124.800 165.600 C 125.020 165.600,125.200 165.336,125.200 165.013 C 125.200 164.655,125.435 164.515,125.800 164.655 C 126.488 164.920,126.612 165.600,125.971 165.600 C 125.736 165.600,125.273 165.870,124.943 166.200 C 124.613 166.530,124.516 166.800,124.729 166.800 C 124.941 166.800,125.218 167.070,125.345 167.400 C 125.686 168.289,125.416 168.150,123.746 166.575 C 122.583 165.479,122.361 165.072,122.781 164.812 C 123.396 164.432,124.400 164.699,124.400 165.243 M275.885 165.600 C 276.010 165.600,276.329 165.303,276.595 164.939 C 277.050 164.317,278.000 164.470,278.000 165.165 C 278.000 165.726,275.966 167.699,275.681 167.415 C 275.530 167.264,275.720 166.965,276.103 166.750 C 276.486 166.536,276.797 166.144,276.794 165.880 C 276.790 165.580,276.629 165.625,276.363 166.000 C 276.044 166.452,275.889 166.476,275.736 166.100 C 275.625 165.825,275.278 165.600,274.967 165.600 C 274.267 165.600,274.217 164.930,274.900 164.695 C 275.175 164.600,275.458 164.765,275.529 165.061 C 275.600 165.358,275.761 165.600,275.885 165.600 M277.645 167.649 C 276.432 168.862,275.828 169.199,275.215 169.005 C 274.296 168.713,274.152 168.180,274.900 167.837 C 275.175 167.711,274.995 167.708,274.500 167.831 C 273.444 168.093,273.207 167.037,274.233 166.643 C 275.329 166.222,275.499 166.368,275.355 167.600 C 275.278 168.260,275.386 168.800,275.594 168.800 C 276.316 168.800,278.800 165.970,278.854 165.087 C 278.909 164.204,278.910 164.204,279.085 165.117 C 279.213 165.789,278.829 166.465,277.645 167.649 M123.206 165.071 C 123.218 165.684,123.955 166.578,124.226 166.307 C 124.374 166.159,124.204 165.747,123.848 165.390 C 123.491 165.034,123.203 164.891,123.206 165.071 M96.400 181.742 C 96.400 182.437,98.201 184.390,98.881 184.432 C 99.305 184.457,99.305 184.501,98.879 184.672 C 98.593 184.787,97.738 184.241,96.979 183.460 C 95.606 182.045,95.239 181.200,96.000 181.200 C 96.220 181.200,96.400 181.444,96.400 181.742 M286.567 190.143 C 286.334 190.748,285.600 191.083,285.600 190.583 C 285.600 190.298,286.568 189.251,286.709 189.383 C 286.770 189.439,286.705 189.781,286.567 190.143 M284.860 194.830 C 284.028 195.605,283.200 195.846,283.200 195.313 C 283.200 195.155,283.691 194.603,284.292 194.087 C 285.586 192.975,286.112 193.663,284.860 194.830 M286.400 195.200 C 286.400 195.420,286.130 195.600,285.800 195.600 C 285.470 195.600,285.200 195.420,285.200 195.200 C 285.200 194.980,285.470 194.800,285.800 194.800 C 286.130 194.800,286.400 194.980,286.400 195.200 M335.200 385.200 C 335.200 385.420,334.840 385.600,334.400 385.600 C 333.960 385.600,333.600 385.420,333.600 385.200 C 333.600 384.980,333.960 384.800,334.400 384.800 C 334.840 384.800,335.200 384.980,335.200 385.200 M316.400 394.967 C 316.400 395.278,316.175 395.614,315.900 395.712 C 315.625 395.810,315.545 396.045,315.722 396.234 C 316.011 396.542,316.385 396.179,316.993 395.000 C 317.122 394.751,317.284 394.776,317.422 395.065 C 318.050 396.383,319.684 397.711,320.016 397.173 C 320.203 396.871,320.496 396.763,320.667 396.933 C 321.064 397.331,319.957 398.049,319.312 397.813 C 319.043 397.714,318.556 397.902,318.229 398.229 C 317.902 398.556,317.714 399.043,317.813 399.312 C 318.049 399.957,317.331 401.064,316.933 400.667 C 316.763 400.496,316.871 400.203,317.173 400.016 C 317.892 399.572,315.811 397.544,314.968 397.868 C 314.623 398.000,314.400 397.834,314.400 397.443 C 314.400 397.089,314.664 396.800,314.987 396.800 C 315.345 396.800,315.485 396.565,315.345 396.200 C 315.059 395.454,315.435 394.400,315.987 394.400 C 316.214 394.400,316.400 394.655,316.400 394.967 M320.957 395.433 C 321.333 396.411,321.251 396.508,320.600 395.857 C 319.920 395.177,319.833 394.800,320.357 394.800 C 320.554 394.800,320.824 395.085,320.957 395.433 M316.300 396.433 C 315.632 397.165,315.636 397.236,316.400 398.000 L 317.200 398.800 318.000 398.000 L 318.800 397.200 318.000 396.400 C 317.064 395.464,317.187 395.462,316.300 396.433 M317.822 396.835 C 318.234 397.502,317.307 398.267,316.755 397.715 C 316.293 397.253,316.582 396.400,317.200 396.400 C 317.394 396.400,317.674 396.596,317.822 396.835 M103.342 407.381 C 104.443 408.401,104.715 409.200,103.963 409.200 C 103.722 409.200,103.431 408.840,103.316 408.400 C 103.201 407.960,102.935 407.600,102.725 407.600 C 102.515 407.600,102.073 407.330,101.743 407.000 C 100.670 405.928,102.155 406.281,103.342 407.381 M120.000 419.400 C 120.000 419.730,119.820 420.000,119.600 420.000 C 119.380 420.000,119.200 419.730,119.200 419.400 C 119.200 419.070,119.380 418.800,119.600 418.800 C 119.820 418.800,120.000 419.070,120.000 419.400 " stroke="none" fill="#746c6c" fill-rule="evenodd"></path><path id="path1" d="M160.000 2.617 C 160.000 5.454,160.579 6.679,161.489 5.769 C 162.554 4.704,162.155 0.000,161.000 0.000 C 160.035 0.000,160.000 0.092,160.000 2.617 M165.206 2.700 C 165.213 5.672,165.707 7.046,166.394 6.000 C 167.208 4.760,166.895 0.000,166.000 0.000 C 165.278 0.000,165.201 0.265,165.206 2.700 M168.000 2.800 C 168.000 4.400,168.171 5.600,168.400 5.600 C 168.629 5.600,168.800 4.400,168.800 2.800 C 168.800 1.200,168.629 0.000,168.400 0.000 C 168.171 0.000,168.000 1.200,168.000 2.800 M232.134 2.800 C 232.134 4.450,232.205 5.125,232.291 4.300 C 232.378 3.475,232.378 2.125,232.291 1.300 C 232.205 0.475,232.134 1.150,232.134 2.800 M233.600 2.629 C 233.600 5.439,234.455 7.189,235.230 5.965 C 236.142 4.525,235.663 0.000,234.600 0.000 C 233.635 0.000,233.600 0.091,233.600 2.629 M238.806 2.700 C 238.813 5.917,239.209 6.848,240.164 5.893 C 241.344 4.713,241.054 0.000,239.800 0.000 C 238.831 0.000,238.800 0.085,238.806 2.700 M131.429 21.429 C 130.917 21.941,130.841 22.214,131.181 22.327 C 131.812 22.537,132.537 21.812,132.327 21.181 C 132.214 20.841,131.941 20.917,131.429 21.429 M268.000 21.357 C 268.000 21.664,268.285 22.024,268.633 22.157 C 269.778 22.597,270.002 22.412,269.307 21.600 C 268.507 20.665,268.000 20.571,268.000 21.357 M321.200 48.200 C 321.200 48.530,321.380 48.800,321.600 48.800 C 321.820 48.800,322.000 48.530,322.000 48.200 C 322.000 47.870,321.820 47.600,321.600 47.600 C 321.380 47.600,321.200 47.870,321.200 48.200 M78.969 50.183 C 78.833 50.723,78.815 51.398,78.929 51.683 C 79.043 51.967,79.151 51.705,79.168 51.100 C 79.186 50.495,79.380 50.000,79.600 50.000 C 79.820 50.000,80.000 49.820,80.000 49.600 C 80.000 48.785,79.207 49.233,78.969 50.183 M320.922 49.733 C 321.075 50.136,321.200 50.811,321.200 51.233 C 321.200 51.655,321.380 52.000,321.600 52.000 C 322.248 52.000,322.057 50.400,321.322 49.671 C 320.688 49.043,320.662 49.046,320.922 49.733 M75.600 54.000 C 75.600 54.220,75.870 54.400,76.200 54.400 C 76.530 54.400,76.800 54.220,76.800 54.000 C 76.800 53.780,76.530 53.600,76.200 53.600 C 75.870 53.600,75.600 53.780,75.600 54.000 M323.600 54.000 C 323.600 54.220,323.960 54.400,324.400 54.400 C 324.840 54.400,325.200 54.220,325.200 54.000 C 325.200 53.780,324.840 53.600,324.400 53.600 C 323.960 53.600,323.600 53.780,323.600 54.000 M74.900 55.423 C 74.311 56.063,74.262 56.400,74.757 56.400 C 75.098 56.400,75.737 55.196,75.509 54.983 C 75.449 54.927,75.175 55.125,74.900 55.423 M325.206 55.071 C 325.218 55.684,325.955 56.578,326.226 56.307 C 326.374 56.159,326.204 55.747,325.848 55.390 C 325.491 55.034,325.203 54.891,325.206 55.071 M329.613 56.291 C 329.089 56.882,329.103 56.923,329.746 56.676 C 330.142 56.524,330.541 56.400,330.633 56.400 C 330.725 56.400,330.800 56.220,330.800 56.000 C 330.800 55.412,330.281 55.539,329.613 56.291 M45.232 72.473 C 45.214 72.843,44.857 73.255,44.437 73.388 C 44.017 73.521,43.573 73.894,43.450 74.215 C 43.326 74.537,42.949 74.800,42.613 74.800 C 42.276 74.800,42.000 74.980,42.000 75.200 C 42.000 75.937,42.731 75.611,44.210 74.216 C 45.017 73.455,45.584 72.600,45.470 72.316 C 45.334 71.978,45.252 72.032,45.232 72.473 M355.232 72.360 C 355.214 72.667,355.821 73.522,356.580 74.260 C 357.959 75.599,358.800 75.955,358.800 75.200 C 358.800 74.980,358.556 74.800,358.258 74.800 C 357.631 74.800,355.821 73.213,355.489 72.372 C 355.301 71.895,355.258 71.893,355.232 72.360 M359.612 72.384 C 359.288 72.589,359.144 72.878,359.293 73.026 C 359.441 73.174,359.853 73.004,360.210 72.648 C 360.913 71.944,360.557 71.787,359.612 72.384 M23.900 79.076 C 23.515 79.176,23.200 79.425,23.200 79.629 C 23.200 79.833,23.006 80.000,22.769 80.000 C 22.228 80.000,20.000 82.201,20.000 82.736 C 20.000 82.954,19.833 83.193,19.630 83.267 C 19.426 83.340,19.182 83.850,19.088 84.400 C 18.994 84.950,18.994 85.175,19.088 84.900 C 19.182 84.625,19.425 84.400,19.629 84.400 C 19.833 84.400,20.000 84.206,20.000 83.968 C 20.000 83.406,23.406 80.000,23.968 80.000 C 24.206 80.000,24.400 79.833,24.400 79.629 C 24.400 79.425,24.715 79.176,25.100 79.076 C 25.552 78.958,25.588 78.893,25.200 78.893 C 24.870 78.893,24.285 78.975,23.900 79.076 M375.900 79.088 C 376.175 79.182,376.400 79.425,376.400 79.629 C 376.400 79.833,376.569 80.000,376.776 80.000 C 377.470 80.000,380.775 83.562,381.032 84.587 C 381.308 85.683,382.000 85.978,382.000 85.000 C 382.000 84.670,381.840 84.400,381.643 84.400 C 381.447 84.400,381.171 83.938,381.029 83.372 C 380.770 82.341,378.681 80.000,378.020 80.000 C 377.825 80.000,377.607 79.833,377.533 79.630 C 377.460 79.426,376.950 79.182,376.400 79.088 C 375.850 78.994,375.625 78.994,375.900 79.088 M23.621 83.535 C 22.509 84.572,22.056 85.280,22.225 85.720 C 22.489 86.410,23.900 87.034,24.297 86.637 C 24.427 86.506,24.233 86.400,23.867 86.400 C 22.701 86.400,23.145 85.127,24.867 83.539 C 25.915 82.571,26.298 82.000,25.900 82.000 C 25.552 82.000,24.526 82.691,23.621 83.535 M26.800 82.600 C 26.800 82.930,26.980 83.200,27.200 83.200 C 27.420 83.200,27.600 82.930,27.600 82.600 C 27.600 82.270,27.420 82.000,27.200 82.000 C 26.980 82.000,26.800 82.270,26.800 82.600 M375.952 83.600 C 377.696 85.292,378.060 86.379,376.900 86.432 C 376.384 86.455,376.349 86.522,376.765 86.687 C 377.076 86.810,377.578 86.571,377.881 86.157 C 378.356 85.507,378.484 85.486,378.810 86.002 C 379.027 86.346,379.190 86.401,379.194 86.132 C 379.203 85.443,375.641 82.000,374.920 82.000 C 374.537 82.000,374.927 82.605,375.952 83.600 M25.600 83.967 C 25.600 84.168,25.825 84.424,26.100 84.535 C 26.399 84.656,26.318 84.750,25.900 84.768 C 25.440 84.789,25.211 85.109,25.232 85.700 C 25.249 86.195,25.354 86.375,25.465 86.100 C 25.576 85.825,25.922 85.600,26.233 85.600 C 26.847 85.600,26.937 85.222,26.557 84.233 C 26.297 83.554,25.600 83.360,25.600 83.967 M373.600 84.957 C 373.600 85.324,373.929 85.600,374.367 85.600 C 374.788 85.600,375.224 85.825,375.335 86.100 C 375.446 86.375,375.551 86.195,375.568 85.700 C 375.586 85.205,375.435 84.800,375.233 84.800 C 375.031 84.800,374.581 84.691,374.233 84.557 C 373.818 84.398,373.600 84.535,373.600 84.957 M19.613 86.291 C 19.089 86.882,19.103 86.923,19.746 86.676 C 20.142 86.524,20.541 86.400,20.633 86.400 C 20.725 86.400,20.800 86.220,20.800 86.000 C 20.800 85.412,20.281 85.539,19.613 86.291 M30.340 140.000 C 31.476 141.189,32.545 141.741,31.529 140.614 C 31.238 140.292,30.768 139.752,30.484 139.414 C 30.201 139.076,29.794 138.800,29.581 138.800 C 29.368 138.800,29.709 139.340,30.340 140.000 M27.600 140.942 C 27.600 141.317,29.673 143.261,29.867 143.067 C 29.989 142.944,29.593 142.384,28.986 141.822 C 27.929 140.843,27.600 140.634,27.600 140.942 M29.613 144.291 C 29.089 144.882,29.103 144.923,29.746 144.676 C 30.142 144.524,30.541 144.400,30.633 144.400 C 30.725 144.400,30.800 144.220,30.800 144.000 C 30.800 143.412,30.281 143.539,29.613 144.291 M44.400 149.429 C 44.400 149.554,44.646 149.904,44.948 150.205 C 45.564 150.822,45.477 152.908,44.825 153.125 C 44.205 153.332,44.305 154.400,44.945 154.400 C 45.269 154.400,45.453 154.764,45.400 155.300 C 45.350 155.795,45.388 155.885,45.483 155.500 C 45.684 154.685,46.244 154.579,46.535 155.300 C 46.696 155.700,46.743 155.700,46.768 155.300 C 46.822 154.449,47.535 154.750,47.718 155.700 L 47.891 156.600 47.946 155.700 C 47.994 154.902,48.791 154.346,48.806 155.100 C 48.827 156.140,49.548 156.509,50.229 155.829 C 50.909 155.148,50.540 154.427,49.500 154.406 C 49.335 154.403,49.200 154.156,49.200 153.858 C 49.200 153.115,47.509 151.352,46.483 151.026 C 46.020 150.879,45.530 150.408,45.394 149.980 C 45.172 149.282,44.400 148.854,44.400 149.429 M355.406 149.980 C 355.270 150.408,354.770 150.882,354.295 151.033 C 353.308 151.346,351.200 153.333,351.200 153.949 C 351.200 154.175,350.897 154.530,350.528 154.736 C 349.939 155.066,349.928 155.185,350.439 155.696 C 350.942 156.199,351.096 156.202,351.552 155.714 C 351.843 155.402,351.963 155.029,351.819 154.885 C 351.674 154.741,351.389 154.888,351.184 155.212 C 350.980 155.535,350.809 155.615,350.806 155.389 C 350.803 155.163,351.160 154.670,351.600 154.293 C 352.040 153.916,352.400 153.336,352.400 153.004 C 352.400 152.672,352.657 152.400,352.971 152.400 C 353.286 152.400,353.834 152.109,354.190 151.752 C 354.547 151.396,354.959 151.226,355.107 151.374 C 355.256 151.522,355.137 151.792,354.843 151.973 C 354.400 152.247,354.402 152.336,354.855 152.497 C 355.155 152.603,355.255 152.845,355.078 153.034 C 354.901 153.222,354.608 153.136,354.425 152.841 C 354.164 152.418,353.909 152.491,353.214 153.186 C 352.730 153.670,352.452 154.185,352.597 154.330 C 352.742 154.475,353.035 154.280,353.250 153.897 C 353.464 153.514,353.856 153.203,354.120 153.206 C 354.415 153.210,354.369 153.364,354.000 153.606 C 353.501 153.934,353.492 154.059,353.945 154.352 C 354.406 154.648,354.406 154.733,353.945 154.897 C 353.628 155.009,353.548 155.239,353.755 155.445 C 353.961 155.652,354.184 155.591,354.288 155.300 C 354.547 154.576,355.116 154.687,355.317 155.500 C 355.412 155.885,355.450 155.795,355.400 155.300 C 355.347 154.764,355.531 154.400,355.855 154.400 C 356.495 154.400,356.595 153.332,355.975 153.125 C 355.323 152.908,355.236 150.822,355.852 150.205 C 356.490 149.567,356.554 149.200,356.027 149.200 C 355.822 149.200,355.543 149.551,355.406 149.980 M46.545 151.800 C 46.671 152.130,47.051 152.400,47.387 152.400 C 47.724 152.400,48.000 152.670,48.000 153.000 C 48.000 153.330,47.936 153.600,47.858 153.600 C 47.618 153.600,45.600 151.651,45.600 151.419 C 45.600 150.942,46.328 151.236,46.545 151.800 M46.980 153.417 C 47.586 154.070,47.981 154.257,48.086 153.942 C 48.195 153.614,48.553 153.753,49.158 154.358 C 49.658 154.858,49.948 155.385,49.803 155.530 C 49.658 155.675,49.367 155.484,49.155 155.106 C 48.891 154.633,48.394 154.463,47.564 154.560 C 46.214 154.717,45.112 153.894,45.460 152.988 C 45.762 152.200,45.884 152.234,46.980 153.417 M352.318 155.486 C 352.415 155.989,352.631 156.400,352.800 156.400 C 352.969 156.400,353.185 155.989,353.282 155.486 C 353.406 154.834,353.268 154.571,352.800 154.571 C 352.332 154.571,352.194 154.834,352.318 155.486 M121.200 165.200 C 121.200 166.078,124.181 169.200,125.020 169.200 C 126.393 169.200,127.359 166.989,126.183 166.538 C 125.312 166.204,125.059 166.601,125.721 167.264 C 126.255 167.798,125.783 168.800,124.997 168.800 C 124.360 168.800,122.000 166.012,122.000 165.260 C 122.000 164.787,121.820 164.400,121.600 164.400 C 121.380 164.400,121.200 164.760,121.200 165.200 M122.781 164.812 C 122.361 165.072,122.583 165.479,123.746 166.575 C 125.416 168.150,125.686 168.289,125.345 167.400 C 125.218 167.070,124.941 166.800,124.729 166.800 C 124.516 166.800,124.613 166.530,124.943 166.200 C 125.273 165.870,125.736 165.600,125.971 165.600 C 126.612 165.600,126.488 164.920,125.800 164.655 C 125.435 164.515,125.200 164.655,125.200 165.013 C 125.200 165.336,125.020 165.600,124.800 165.600 C 124.580 165.600,124.400 165.439,124.400 165.243 C 124.400 164.699,123.396 164.432,122.781 164.812 M274.900 164.695 C 274.217 164.930,274.267 165.600,274.967 165.600 C 275.278 165.600,275.625 165.825,275.736 166.100 C 275.889 166.476,276.044 166.452,276.363 166.000 C 276.629 165.625,276.790 165.580,276.794 165.880 C 276.797 166.144,276.486 166.536,276.103 166.750 C 275.720 166.965,275.530 167.264,275.681 167.415 C 275.966 167.699,278.000 165.726,278.000 165.165 C 278.000 164.470,277.050 164.317,276.595 164.939 C 276.009 165.741,275.701 165.776,275.529 165.061 C 275.458 164.765,275.175 164.600,274.900 164.695 M278.854 165.087 C 278.800 165.970,276.316 168.800,275.594 168.800 C 275.386 168.800,275.278 168.260,275.355 167.600 C 275.499 166.368,275.329 166.222,274.233 166.643 C 273.207 167.037,273.444 168.093,274.500 167.831 C 274.995 167.708,275.175 167.711,274.900 167.837 C 274.152 168.180,274.296 168.713,275.215 169.005 C 276.382 169.375,279.332 166.411,279.085 165.117 C 278.910 164.204,278.909 164.204,278.854 165.087 M124.226 166.307 C 124.078 166.456,123.789 166.312,123.584 165.988 C 122.987 165.043,123.144 164.687,123.848 165.390 C 124.204 165.747,124.374 166.159,124.226 166.307 M95.600 181.620 C 95.600 182.346,98.334 184.890,98.879 184.672 C 99.305 184.501,99.305 184.457,98.881 184.432 C 98.201 184.390,96.400 182.437,96.400 181.742 C 96.400 181.444,96.220 181.200,96.000 181.200 C 95.780 181.200,95.600 181.389,95.600 181.620 M286.100 189.823 C 285.511 190.463,285.462 190.800,285.957 190.800 C 286.298 190.800,286.937 189.596,286.709 189.383 C 286.649 189.327,286.375 189.525,286.100 189.823 M284.292 194.087 C 283.150 195.069,282.913 195.600,283.617 195.600 C 284.271 195.600,285.703 194.110,285.535 193.605 C 285.442 193.326,284.961 193.512,284.292 194.087 M285.200 195.200 C 285.200 195.420,285.470 195.600,285.800 195.600 C 286.130 195.600,286.400 195.420,286.400 195.200 C 286.400 194.980,286.130 194.800,285.800 194.800 C 285.470 194.800,285.200 194.980,285.200 195.200 M333.600 385.200 C 333.600 385.420,333.960 385.600,334.400 385.600 C 334.840 385.600,335.200 385.420,335.200 385.200 C 335.200 384.980,334.840 384.800,334.400 384.800 C 333.960 384.800,333.600 384.980,333.600 385.200 M315.345 395.000 C 315.218 395.330,315.218 395.870,315.345 396.200 C 315.485 396.565,315.345 396.800,314.987 396.800 C 314.664 396.800,314.400 397.089,314.400 397.443 C 314.400 397.834,314.623 398.000,314.968 397.868 C 315.811 397.544,317.892 399.572,317.173 400.016 C 316.871 400.203,316.763 400.496,316.933 400.667 C 317.331 401.064,318.049 399.957,317.813 399.312 C 317.714 399.043,317.902 398.556,318.229 398.229 C 318.556 397.902,319.043 397.714,319.312 397.813 C 319.957 398.049,321.064 397.331,320.667 396.933 C 320.496 396.763,320.203 396.871,320.016 397.173 C 319.684 397.711,318.050 396.383,317.422 395.065 C 317.284 394.776,317.122 394.751,316.993 395.000 C 316.385 396.179,316.011 396.542,315.722 396.234 C 315.545 396.045,315.625 395.810,315.900 395.712 C 316.501 395.497,316.574 394.400,315.987 394.400 C 315.761 394.400,315.471 394.670,315.345 395.000 M320.000 395.029 C 320.000 395.154,320.270 395.527,320.600 395.857 C 321.251 396.508,321.333 396.411,320.957 395.433 C 320.729 394.838,320.000 394.530,320.000 395.029 M318.000 396.400 L 318.800 397.200 318.000 398.000 L 317.200 398.800 316.400 398.000 C 315.636 397.236,315.632 397.165,316.300 396.433 C 317.187 395.462,317.064 395.464,318.000 396.400 M316.578 396.835 C 316.166 397.502,317.093 398.267,317.645 397.715 C 318.107 397.253,317.818 396.400,317.200 396.400 C 317.006 396.400,316.726 396.596,316.578 396.835 M101.743 407.000 C 102.073 407.330,102.515 407.600,102.725 407.600 C 102.935 407.600,103.201 407.960,103.316 408.400 C 103.531 409.223,104.400 409.529,104.400 408.781 C 104.400 408.181,102.390 406.400,101.713 406.400 C 101.233 406.400,101.237 406.495,101.743 407.000 M119.200 419.400 C 119.200 419.730,119.380 420.000,119.600 420.000 C 119.820 420.000,120.000 419.730,120.000 419.400 C 120.000 419.070,119.820 418.800,119.600 418.800 C 119.380 418.800,119.200 419.070,119.200 419.400 " stroke="none" fill="#786c6c" fill-rule="evenodd"></path><path id="path2" d="M160.000 2.617 C 160.000 5.454,160.579 6.679,161.489 5.769 C 162.554 4.704,162.155 0.000,161.000 0.000 C 160.035 0.000,160.000 0.092,160.000 2.617 M165.206 2.700 C 165.213 5.672,165.707 7.046,166.394 6.000 C 167.208 4.760,166.895 0.000,166.000 0.000 C 165.278 0.000,165.201 0.265,165.206 2.700 M168.000 2.800 C 168.000 4.400,168.171 5.600,168.400 5.600 C 168.629 5.600,168.800 4.400,168.800 2.800 C 168.800 1.200,168.629 0.000,168.400 0.000 C 168.171 0.000,168.000 1.200,168.000 2.800 M232.134 2.800 C 232.134 4.450,232.205 5.125,232.291 4.300 C 232.378 3.475,232.378 2.125,232.291 1.300 C 232.205 0.475,232.134 1.150,232.134 2.800 M233.600 2.629 C 233.600 5.439,234.455 7.189,235.230 5.965 C 236.142 4.525,235.663 0.000,234.600 0.000 C 233.635 0.000,233.600 0.091,233.600 2.629 M238.806 2.700 C 238.813 5.917,239.209 6.848,240.164 5.893 C 241.344 4.713,241.054 0.000,239.800 0.000 C 238.831 0.000,238.800 0.085,238.806 2.700 M131.429 21.429 C 130.917 21.941,130.841 22.214,131.181 22.327 C 131.812 22.537,132.537 21.812,132.327 21.181 C 132.214 20.841,131.941 20.917,131.429 21.429 M268.000 21.357 C 268.000 21.664,268.285 22.024,268.633 22.157 C 269.778 22.597,270.002 22.412,269.307 21.600 C 268.507 20.665,268.000 20.571,268.000 21.357 M321.200 48.200 C 321.200 48.530,321.380 48.800,321.600 48.800 C 321.820 48.800,322.000 48.530,322.000 48.200 C 322.000 47.870,321.820 47.600,321.600 47.600 C 321.380 47.600,321.200 47.870,321.200 48.200 M78.969 50.183 C 78.833 50.723,78.815 51.398,78.929 51.683 C 79.043 51.967,79.151 51.705,79.168 51.100 C 79.186 50.495,79.380 50.000,79.600 50.000 C 79.820 50.000,80.000 49.820,80.000 49.600 C 80.000 48.785,79.207 49.233,78.969 50.183 M320.922 49.733 C 321.075 50.136,321.200 50.811,321.200 51.233 C 321.200 51.655,321.380 52.000,321.600 52.000 C 322.248 52.000,322.057 50.400,321.322 49.671 C 320.688 49.043,320.662 49.046,320.922 49.733 M75.600 54.000 C 75.600 54.220,75.870 54.400,76.200 54.400 C 76.530 54.400,76.800 54.220,76.800 54.000 C 76.800 53.780,76.530 53.600,76.200 53.600 C 75.870 53.600,75.600 53.780,75.600 54.000 M323.600 54.000 C 323.600 54.220,323.960 54.400,324.400 54.400 C 324.840 54.400,325.200 54.220,325.200 54.000 C 325.200 53.780,324.840 53.600,324.400 53.600 C 323.960 53.600,323.600 53.780,323.600 54.000 M74.900 55.423 C 74.311 56.063,74.262 56.400,74.757 56.400 C 75.098 56.400,75.737 55.196,75.509 54.983 C 75.449 54.927,75.175 55.125,74.900 55.423 M325.206 55.071 C 325.218 55.684,325.955 56.578,326.226 56.307 C 326.374 56.159,326.204 55.747,325.848 55.390 C 325.491 55.034,325.203 54.891,325.206 55.071 M329.613 56.291 C 329.089 56.882,329.103 56.923,329.746 56.676 C 330.142 56.524,330.541 56.400,330.633 56.400 C 330.725 56.400,330.800 56.220,330.800 56.000 C 330.800 55.412,330.281 55.539,329.613 56.291 M45.232 72.473 C 45.214 72.843,44.857 73.255,44.437 73.388 C 44.017 73.521,43.573 73.894,43.450 74.215 C 43.326 74.537,42.949 74.800,42.613 74.800 C 42.276 74.800,42.000 74.980,42.000 75.200 C 42.000 75.937,42.731 75.611,44.210 74.216 C 45.017 73.455,45.584 72.600,45.470 72.316 C 45.334 71.978,45.252 72.032,45.232 72.473 M355.232 72.360 C 355.214 72.667,355.821 73.522,356.580 74.260 C 357.959 75.599,358.800 75.955,358.800 75.200 C 358.800 74.980,358.556 74.800,358.258 74.800 C 357.631 74.800,355.821 73.213,355.489 72.372 C 355.301 71.895,355.258 71.893,355.232 72.360 M359.612 72.384 C 359.288 72.589,359.144 72.878,359.293 73.026 C 359.441 73.174,359.853 73.004,360.210 72.648 C 360.913 71.944,360.557 71.787,359.612 72.384 M23.900 79.076 C 23.515 79.176,23.200 79.425,23.200 79.629 C 23.200 79.833,23.006 80.000,22.769 80.000 C 22.228 80.000,20.000 82.201,20.000 82.736 C 20.000 82.954,19.833 83.193,19.630 83.267 C 19.426 83.340,19.182 83.850,19.088 84.400 C 18.994 84.950,18.994 85.175,19.088 84.900 C 19.182 84.625,19.425 84.400,19.629 84.400 C 19.833 84.400,20.000 84.206,20.000 83.968 C 20.000 83.406,23.406 80.000,23.968 80.000 C 24.206 80.000,24.400 79.833,24.400 79.629 C 24.400 79.425,24.715 79.176,25.100 79.076 C 25.552 78.958,25.588 78.893,25.200 78.893 C 24.870 78.893,24.285 78.975,23.900 79.076 M375.900 79.088 C 376.175 79.182,376.400 79.425,376.400 79.629 C 376.400 79.833,376.569 80.000,376.776 80.000 C 377.470 80.000,380.775 83.562,381.032 84.587 C 381.308 85.683,382.000 85.978,382.000 85.000 C 382.000 84.670,381.840 84.400,381.643 84.400 C 381.447 84.400,381.171 83.938,381.029 83.372 C 380.770 82.341,378.681 80.000,378.020 80.000 C 377.825 80.000,377.607 79.833,377.533 79.630 C 377.460 79.426,376.950 79.182,376.400 79.088 C 375.850 78.994,375.625 78.994,375.900 79.088 M23.621 83.535 C 22.509 84.572,22.056 85.280,22.225 85.720 C 22.489 86.410,23.900 87.034,24.297 86.637 C 24.427 86.506,24.233 86.400,23.867 86.400 C 22.701 86.400,23.145 85.127,24.867 83.539 C 25.915 82.571,26.298 82.000,25.900 82.000 C 25.552 82.000,24.526 82.691,23.621 83.535 M26.800 82.600 C 26.800 82.930,26.980 83.200,27.200 83.200 C 27.420 83.200,27.600 82.930,27.600 82.600 C 27.600 82.270,27.420 82.000,27.200 82.000 C 26.980 82.000,26.800 82.270,26.800 82.600 M375.952 83.600 C 377.696 85.292,378.060 86.379,376.900 86.432 C 376.384 86.455,376.349 86.522,376.765 86.687 C 377.076 86.810,377.578 86.571,377.881 86.157 C 378.356 85.507,378.484 85.486,378.810 86.002 C 379.027 86.346,379.190 86.401,379.194 86.132 C 379.203 85.443,375.641 82.000,374.920 82.000 C 374.537 82.000,374.927 82.605,375.952 83.600 M25.600 83.967 C 25.600 84.168,25.825 84.424,26.100 84.535 C 26.399 84.656,26.318 84.750,25.900 84.768 C 25.440 84.789,25.211 85.109,25.232 85.700 C 25.249 86.195,25.354 86.375,25.465 86.100 C 25.576 85.825,25.922 85.600,26.233 85.600 C 26.847 85.600,26.937 85.222,26.557 84.233 C 26.297 83.554,25.600 83.360,25.600 83.967 M373.600 84.957 C 373.600 85.324,373.929 85.600,374.367 85.600 C 374.788 85.600,375.224 85.825,375.335 86.100 C 375.446 86.375,375.551 86.195,375.568 85.700 C 375.586 85.205,375.435 84.800,375.233 84.800 C 375.031 84.800,374.581 84.691,374.233 84.557 C 373.818 84.398,373.600 84.535,373.600 84.957 M19.613 86.291 C 19.089 86.882,19.103 86.923,19.746 86.676 C 20.142 86.524,20.541 86.400,20.633 86.400 C 20.725 86.400,20.800 86.220,20.800 86.000 C 20.800 85.412,20.281 85.539,19.613 86.291 M30.340 140.000 C 31.476 141.189,32.545 141.741,31.529 140.614 C 31.238 140.292,30.768 139.752,30.484 139.414 C 30.201 139.076,29.794 138.800,29.581 138.800 C 29.368 138.800,29.709 139.340,30.340 140.000 M27.600 140.942 C 27.600 141.317,29.673 143.261,29.867 143.067 C 29.989 142.944,29.593 142.384,28.986 141.822 C 27.929 140.843,27.600 140.634,27.600 140.942 M29.613 144.291 C 29.089 144.882,29.103 144.923,29.746 144.676 C 30.142 144.524,30.541 144.400,30.633 144.400 C 30.725 144.400,30.800 144.220,30.800 144.000 C 30.800 143.412,30.281 143.539,29.613 144.291 M44.400 149.429 C 44.400 149.554,44.646 149.904,44.948 150.205 C 45.564 150.822,45.477 152.908,44.825 153.125 C 44.205 153.332,44.305 154.400,44.945 154.400 C 45.269 154.400,45.453 154.764,45.400 155.300 C 45.350 155.795,45.388 155.885,45.483 155.500 C 45.684 154.685,46.244 154.579,46.535 155.300 C 46.696 155.700,46.743 155.700,46.768 155.300 C 46.822 154.449,47.535 154.750,47.718 155.700 L 47.891 156.600 47.946 155.700 C 47.994 154.902,48.791 154.346,48.806 155.100 C 48.827 156.140,49.548 156.509,50.229 155.829 C 50.909 155.148,50.540 154.427,49.500 154.406 C 49.335 154.403,49.200 154.156,49.200 153.858 C 49.200 153.115,47.509 151.352,46.483 151.026 C 46.020 150.879,45.530 150.408,45.394 149.980 C 45.172 149.282,44.400 148.854,44.400 149.429 M355.406 149.980 C 355.270 150.408,354.770 150.882,354.295 151.033 C 353.308 151.346,351.200 153.333,351.200 153.949 C 351.200 154.175,350.897 154.530,350.528 154.736 C 349.939 155.066,349.928 155.185,350.439 155.696 C 350.942 156.199,351.096 156.202,351.552 155.714 C 351.843 155.402,351.963 155.029,351.819 154.885 C 351.674 154.741,351.389 154.888,351.184 155.212 C 350.980 155.535,350.809 155.615,350.806 155.389 C 350.803 155.163,351.160 154.670,351.600 154.293 C 352.040 153.916,352.400 153.336,352.400 153.004 C 352.400 152.672,352.657 152.400,352.971 152.400 C 353.286 152.400,353.834 152.109,354.190 151.752 C 354.547 151.396,354.959 151.226,355.107 151.374 C 355.256 151.522,355.137 151.792,354.843 151.973 C 354.400 152.247,354.402 152.336,354.855 152.497 C 355.155 152.603,355.255 152.845,355.078 153.034 C 354.901 153.222,354.608 153.136,354.425 152.841 C 354.164 152.418,353.909 152.491,353.214 153.186 C 352.730 153.670,352.452 154.185,352.597 154.330 C 352.742 154.475,353.035 154.280,353.250 153.897 C 353.464 153.514,353.856 153.203,354.120 153.206 C 354.415 153.210,354.369 153.364,354.000 153.606 C 353.501 153.934,353.492 154.059,353.945 154.352 C 354.406 154.648,354.406 154.733,353.945 154.897 C 353.628 155.009,353.548 155.239,353.755 155.445 C 353.961 155.652,354.184 155.591,354.288 155.300 C 354.547 154.576,355.116 154.687,355.317 155.500 C 355.412 155.885,355.450 155.795,355.400 155.300 C 355.347 154.764,355.531 154.400,355.855 154.400 C 356.495 154.400,356.595 153.332,355.975 153.125 C 355.323 152.908,355.236 150.822,355.852 150.205 C 356.490 149.567,356.554 149.200,356.027 149.200 C 355.822 149.200,355.543 149.551,355.406 149.980 M46.545 151.800 C 46.671 152.130,47.051 152.400,47.387 152.400 C 47.724 152.400,48.000 152.670,48.000 153.000 C 48.000 153.330,47.936 153.600,47.858 153.600 C 47.618 153.600,45.600 151.651,45.600 151.419 C 45.600 150.942,46.328 151.236,46.545 151.800 M46.980 153.417 C 47.586 154.070,47.981 154.257,48.086 153.942 C 48.195 153.614,48.553 153.753,49.158 154.358 C 49.658 154.858,49.948 155.385,49.803 155.530 C 49.658 155.675,49.367 155.484,49.155 155.106 C 48.891 154.633,48.394 154.463,47.564 154.560 C 46.214 154.717,45.112 153.894,45.460 152.988 C 45.762 152.200,45.884 152.234,46.980 153.417 M352.318 155.486 C 352.415 155.989,352.631 156.400,352.800 156.400 C 352.969 156.400,353.185 155.989,353.282 155.486 C 353.406 154.834,353.268 154.571,352.800 154.571 C 352.332 154.571,352.194 154.834,352.318 155.486 M121.200 165.200 C 121.200 166.078,124.181 169.200,125.020 169.200 C 126.393 169.200,127.359 166.989,126.183 166.538 C 125.312 166.204,125.059 166.601,125.721 167.264 C 126.255 167.798,125.783 168.800,124.997 168.800 C 124.360 168.800,122.000 166.012,122.000 165.260 C 122.000 164.787,121.820 164.400,121.600 164.400 C 121.380 164.400,121.200 164.760,121.200 165.200 M122.781 164.812 C 122.361 165.072,122.583 165.479,123.746 166.575 C 125.416 168.150,125.686 168.289,125.345 167.400 C 125.218 167.070,124.941 166.800,124.729 166.800 C 124.516 166.800,124.613 166.530,124.943 166.200 C 125.273 165.870,125.736 165.600,125.971 165.600 C 126.612 165.600,126.488 164.920,125.800 164.655 C 125.435 164.515,125.200 164.655,125.200 165.013 C 125.200 165.336,125.020 165.600,124.800 165.600 C 124.580 165.600,124.400 165.439,124.400 165.243 C 124.400 164.699,123.396 164.432,122.781 164.812 M274.900 164.695 C 274.217 164.930,274.267 165.600,274.967 165.600 C 275.278 165.600,275.625 165.825,275.736 166.100 C 275.889 166.476,276.044 166.452,276.363 166.000 C 276.629 165.625,276.790 165.580,276.794 165.880 C 276.797 166.144,276.486 166.536,276.103 166.750 C 275.720 166.965,275.530 167.264,275.681 167.415 C 275.966 167.699,278.000 165.726,278.000 165.165 C 278.000 164.470,277.050 164.317,276.595 164.939 C 276.009 165.741,275.701 165.776,275.529 165.061 C 275.458 164.765,275.175 164.600,274.900 164.695 M278.854 165.087 C 278.800 165.970,276.316 168.800,275.594 168.800 C 275.386 168.800,275.278 168.260,275.355 167.600 C 275.499 166.368,275.329 166.222,274.233 166.643 C 273.207 167.037,273.444 168.093,274.500 167.831 C 274.995 167.708,275.175 167.711,274.900 167.837 C 274.152 168.180,274.296 168.713,275.215 169.005 C 276.382 169.375,279.332 166.411,279.085 165.117 C 278.910 164.204,278.909 164.204,278.854 165.087 M124.226 166.307 C 124.078 166.456,123.789 166.312,123.584 165.988 C 122.987 165.043,123.144 164.687,123.848 165.390 C 124.204 165.747,124.374 166.159,124.226 166.307 M95.600 181.620 C 95.600 182.346,98.334 184.890,98.879 184.672 C 99.305 184.501,99.305 184.457,98.881 184.432 C 98.201 184.390,96.400 182.437,96.400 181.742 C 96.400 181.444,96.220 181.200,96.000 181.200 C 95.780 181.200,95.600 181.389,95.600 181.620 M286.100 189.823 C 285.511 190.463,285.462 190.800,285.957 190.800 C 286.298 190.800,286.937 189.596,286.709 189.383 C 286.649 189.327,286.375 189.525,286.100 189.823 M284.292 194.087 C 283.150 195.069,282.913 195.600,283.617 195.600 C 284.271 195.600,285.703 194.110,285.535 193.605 C 285.442 193.326,284.961 193.512,284.292 194.087 M285.200 195.200 C 285.200 195.420,285.470 195.600,285.800 195.600 C 286.130 195.600,286.400 195.420,286.400 195.200 C 286.400 194.980,286.130 194.800,285.800 194.800 C 285.470 194.800,285.200 194.980,285.200 195.200 M333.600 385.200 C 333.600 385.420,333.960 385.600,334.400 385.600 C 334.840 385.600,335.200 385.420,335.200 385.200 C 335.200 384.980,334.840 384.800,334.400 384.800 C 333.960 384.800,333.600 384.980,333.600 385.200 M315.345 395.000 C 315.218 395.330,315.218 395.870,315.345 396.200 C 315.485 396.565,315.345 396.800,314.987 396.800 C 314.664 396.800,314.400 397.089,314.400 397.443 C 314.400 397.834,314.623 398.000,314.968 397.868 C 315.811 397.544,317.892 399.572,317.173 400.016 C 316.871 400.203,316.763 400.496,316.933 400.667 C 317.331 401.064,318.049 399.957,317.813 399.312 C 317.714 399.043,317.902 398.556,318.229 398.229 C 318.556 397.902,319.043 397.714,319.312 397.813 C 319.957 398.049,321.064 397.331,320.667 396.933 C 320.496 396.763,320.203 396.871,320.016 397.173 C 319.684 397.711,318.050 396.383,317.422 395.065 C 317.284 394.776,317.122 394.751,316.993 395.000 C 316.385 396.179,316.011 396.542,315.722 396.234 C 315.545 396.045,315.625 395.810,315.900 395.712 C 316.501 395.497,316.574 394.400,315.987 394.400 C 315.761 394.400,315.471 394.670,315.345 395.000 M320.000 395.029 C 320.000 395.154,320.270 395.527,320.600 395.857 C 321.251 396.508,321.333 396.411,320.957 395.433 C 320.729 394.838,320.000 394.530,320.000 395.029 M318.000 396.400 L 318.800 397.200 318.000 398.000 L 317.200 398.800 316.400 398.000 C 315.636 397.236,315.632 397.165,316.300 396.433 C 317.187 395.462,317.064 395.464,318.000 396.400 M316.578 396.835 C 316.166 397.502,317.093 398.267,317.645 397.715 C 318.107 397.253,317.818 396.400,317.200 396.400 C 317.006 396.400,316.726 396.596,316.578 396.835 M101.743 407.000 C 102.073 407.330,102.515 407.600,102.725 407.600 C 102.935 407.600,103.201 407.960,103.316 408.400 C 103.531 409.223,104.400 409.529,104.400 408.781 C 104.400 408.181,102.390 406.400,101.713 406.400 C 101.233 406.400,101.237 406.495,101.743 407.000 M119.200 419.400 C 119.200 419.730,119.380 420.000,119.600 420.000 C 119.820 420.000,120.000 419.730,120.000 419.400 C 120.000 419.070,119.820 418.800,119.600 418.800 C 119.380 418.800,119.200 419.070,119.200 419.400 " stroke="none" fill="#786c6c" fill-rule="evenodd"></path><path id="path3" d="M160.000 2.617 C 160.000 5.454,160.579 6.679,161.489 5.769 C 162.554 4.704,162.155 0.000,161.000 0.000 C 160.035 0.000,160.000 0.092,160.000 2.617 M165.206 2.700 C 165.213 5.672,165.707 7.046,166.394 6.000 C 167.208 4.760,166.895 0.000,166.000 0.000 C 165.278 0.000,165.201 0.265,165.206 2.700 M168.000 2.800 C 168.000 4.400,168.171 5.600,168.400 5.600 C 168.629 5.600,168.800 4.400,168.800 2.800 C 168.800 1.200,168.629 0.000,168.400 0.000 C 168.171 0.000,168.000 1.200,168.000 2.800 M232.134 2.800 C 232.134 4.450,232.205 5.125,232.291 4.300 C 232.378 3.475,232.378 2.125,232.291 1.300 C 232.205 0.475,232.134 1.150,232.134 2.800 M233.600 2.629 C 233.600 5.439,234.455 7.189,235.230 5.965 C 236.142 4.525,235.663 0.000,234.600 0.000 C 233.635 0.000,233.600 0.091,233.600 2.629 M238.806 2.700 C 238.813 5.917,239.209 6.848,240.164 5.893 C 241.344 4.713,241.054 0.000,239.800 0.000 C 238.831 0.000,238.800 0.085,238.806 2.700 M131.429 21.429 C 130.917 21.941,130.841 22.214,131.181 22.327 C 131.812 22.537,132.537 21.812,132.327 21.181 C 132.214 20.841,131.941 20.917,131.429 21.429 M268.000 21.357 C 268.000 21.664,268.285 22.024,268.633 22.157 C 269.778 22.597,270.002 22.412,269.307 21.600 C 268.507 20.665,268.000 20.571,268.000 21.357 M321.200 48.200 C 321.200 48.530,321.380 48.800,321.600 48.800 C 321.820 48.800,322.000 48.530,322.000 48.200 C 322.000 47.870,321.820 47.600,321.600 47.600 C 321.380 47.600,321.200 47.870,321.200 48.200 M78.969 50.183 C 78.833 50.723,78.815 51.398,78.929 51.683 C 79.043 51.967,79.151 51.705,79.168 51.100 C 79.186 50.495,79.380 50.000,79.600 50.000 C 79.820 50.000,80.000 49.820,80.000 49.600 C 80.000 48.785,79.207 49.233,78.969 50.183 M320.922 49.733 C 321.075 50.136,321.200 50.811,321.200 51.233 C 321.200 51.655,321.380 52.000,321.600 52.000 C 322.248 52.000,322.057 50.400,321.322 49.671 C 320.688 49.043,320.662 49.046,320.922 49.733 M75.600 54.000 C 75.600 54.220,75.870 54.400,76.200 54.400 C 76.530 54.400,76.800 54.220,76.800 54.000 C 76.800 53.780,76.530 53.600,76.200 53.600 C 75.870 53.600,75.600 53.780,75.600 54.000 M323.600 54.000 C 323.600 54.220,323.960 54.400,324.400 54.400 C 324.840 54.400,325.200 54.220,325.200 54.000 C 325.200 53.780,324.840 53.600,324.400 53.600 C 323.960 53.600,323.600 53.780,323.600 54.000 M74.900 55.423 C 74.311 56.063,74.262 56.400,74.757 56.400 C 75.098 56.400,75.737 55.196,75.509 54.983 C 75.449 54.927,75.175 55.125,74.900 55.423 M325.206 55.071 C 325.218 55.684,325.955 56.578,326.226 56.307 C 326.374 56.159,326.204 55.747,325.848 55.390 C 325.491 55.034,325.203 54.891,325.206 55.071 M329.613 56.291 C 329.089 56.882,329.103 56.923,329.746 56.676 C 330.142 56.524,330.541 56.400,330.633 56.400 C 330.725 56.400,330.800 56.220,330.800 56.000 C 330.800 55.412,330.281 55.539,329.613 56.291 M45.232 72.473 C 45.214 72.843,44.857 73.255,44.437 73.388 C 44.017 73.521,43.573 73.894,43.450 74.215 C 43.326 74.537,42.949 74.800,42.613 74.800 C 42.276 74.800,42.000 74.980,42.000 75.200 C 42.000 75.937,42.731 75.611,44.210 74.216 C 45.017 73.455,45.584 72.600,45.470 72.316 C 45.334 71.978,45.252 72.032,45.232 72.473 M355.232 72.360 C 355.214 72.667,355.821 73.522,356.580 74.260 C 357.959 75.599,358.800 75.955,358.800 75.200 C 358.800 74.980,358.556 74.800,358.258 74.800 C 357.631 74.800,355.821 73.213,355.489 72.372 C 355.301 71.895,355.258 71.893,355.232 72.360 M359.612 72.384 C 359.288 72.589,359.144 72.878,359.293 73.026 C 359.441 73.174,359.853 73.004,360.210 72.648 C 360.913 71.944,360.557 71.787,359.612 72.384 M23.900 79.076 C 23.515 79.176,23.200 79.425,23.200 79.629 C 23.200 79.833,23.006 80.000,22.769 80.000 C 22.228 80.000,20.000 82.201,20.000 82.736 C 20.000 82.954,19.833 83.193,19.630 83.267 C 19.426 83.340,19.182 83.850,19.088 84.400 C 18.994 84.950,18.994 85.175,19.088 84.900 C 19.182 84.625,19.425 84.400,19.629 84.400 C 19.833 84.400,20.000 84.206,20.000 83.968 C 20.000 83.406,23.406 80.000,23.968 80.000 C 24.206 80.000,24.400 79.833,24.400 79.629 C 24.400 79.425,24.715 79.176,25.100 79.076 C 25.552 78.958,25.588 78.893,25.200 78.893 C 24.870 78.893,24.285 78.975,23.900 79.076 M375.900 79.088 C 376.175 79.182,376.400 79.425,376.400 79.629 C 376.400 79.833,376.569 80.000,376.776 80.000 C 377.470 80.000,380.775 83.562,381.032 84.587 C 381.308 85.683,382.000 85.978,382.000 85.000 C 382.000 84.670,381.840 84.400,381.643 84.400 C 381.447 84.400,381.171 83.938,381.029 83.372 C 380.770 82.341,378.681 80.000,378.020 80.000 C 377.825 80.000,377.607 79.833,377.533 79.630 C 377.460 79.426,376.950 79.182,376.400 79.088 C 375.850 78.994,375.625 78.994,375.900 79.088 M23.621 83.535 C 22.509 84.572,22.056 85.280,22.225 85.720 C 22.489 86.410,23.900 87.034,24.297 86.637 C 24.427 86.506,24.233 86.400,23.867 86.400 C 22.701 86.400,23.145 85.127,24.867 83.539 C 25.915 82.571,26.298 82.000,25.900 82.000 C 25.552 82.000,24.526 82.691,23.621 83.535 M26.800 82.600 C 26.800 82.930,26.980 83.200,27.200 83.200 C 27.420 83.200,27.600 82.930,27.600 82.600 C 27.600 82.270,27.420 82.000,27.200 82.000 C 26.980 82.000,26.800 82.270,26.800 82.600 M375.952 83.600 C 377.696 85.292,378.060 86.379,376.900 86.432 C 376.384 86.455,376.349 86.522,376.765 86.687 C 377.076 86.810,377.578 86.571,377.881 86.157 C 378.356 85.507,378.484 85.486,378.810 86.002 C 379.027 86.346,379.190 86.401,379.194 86.132 C 379.203 85.443,375.641 82.000,374.920 82.000 C 374.537 82.000,374.927 82.605,375.952 83.600 M25.600 83.967 C 25.600 84.168,25.825 84.424,26.100 84.535 C 26.399 84.656,26.318 84.750,25.900 84.768 C 25.440 84.789,25.211 85.109,25.232 85.700 C 25.249 86.195,25.354 86.375,25.465 86.100 C 25.576 85.825,25.922 85.600,26.233 85.600 C 26.847 85.600,26.937 85.222,26.557 84.233 C 26.297 83.554,25.600 83.360,25.600 83.967 M373.600 84.957 C 373.600 85.324,373.929 85.600,374.367 85.600 C 374.788 85.600,375.224 85.825,375.335 86.100 C 375.446 86.375,375.551 86.195,375.568 85.700 C 375.586 85.205,375.435 84.800,375.233 84.800 C 375.031 84.800,374.581 84.691,374.233 84.557 C 373.818 84.398,373.600 84.535,373.600 84.957 M19.613 86.291 C 19.089 86.882,19.103 86.923,19.746 86.676 C 20.142 86.524,20.541 86.400,20.633 86.400 C 20.725 86.400,20.800 86.220,20.800 86.000 C 20.800 85.412,20.281 85.539,19.613 86.291 M30.340 140.000 C 31.476 141.189,32.545 141.741,31.529 140.614 C 31.238 140.292,30.768 139.752,30.484 139.414 C 30.201 139.076,29.794 138.800,29.581 138.800 C 29.368 138.800,29.709 139.340,30.340 140.000 M27.600 140.942 C 27.600 141.317,29.673 143.261,29.867 143.067 C 29.989 142.944,29.593 142.384,28.986 141.822 C 27.929 140.843,27.600 140.634,27.600 140.942 M29.613 144.291 C 29.089 144.882,29.103 144.923,29.746 144.676 C 30.142 144.524,30.541 144.400,30.633 144.400 C 30.725 144.400,30.800 144.220,30.800 144.000 C 30.800 143.412,30.281 143.539,29.613 144.291 M44.400 149.429 C 44.400 149.554,44.646 149.904,44.948 150.205 C 45.564 150.822,45.477 152.908,44.825 153.125 C 44.205 153.332,44.305 154.400,44.945 154.400 C 45.269 154.400,45.453 154.764,45.400 155.300 C 45.350 155.795,45.388 155.885,45.483 155.500 C 45.684 154.685,46.244 154.579,46.535 155.300 C 46.696 155.700,46.743 155.700,46.768 155.300 C 46.822 154.449,47.535 154.750,47.718 155.700 L 47.891 156.600 47.946 155.700 C 47.994 154.902,48.791 154.346,48.806 155.100 C 48.827 156.140,49.548 156.509,50.229 155.829 C 50.909 155.148,50.540 154.427,49.500 154.406 C 49.335 154.403,49.200 154.156,49.200 153.858 C 49.200 153.115,47.509 151.352,46.483 151.026 C 46.020 150.879,45.530 150.408,45.394 149.980 C 45.172 149.282,44.400 148.854,44.400 149.429 M355.406 149.980 C 355.270 150.408,354.770 150.882,354.295 151.033 C 353.308 151.346,351.200 153.333,351.200 153.949 C 351.200 154.175,350.897 154.530,350.528 154.736 C 349.939 155.066,349.928 155.185,350.439 155.696 C 350.942 156.199,351.096 156.202,351.552 155.714 C 351.843 155.402,351.963 155.029,351.819 154.885 C 351.674 154.741,351.389 154.888,351.184 155.212 C 350.980 155.535,350.809 155.615,350.806 155.389 C 350.803 155.163,351.160 154.670,351.600 154.293 C 352.040 153.916,352.400 153.336,352.400 153.004 C 352.400 152.672,352.657 152.400,352.971 152.400 C 353.286 152.400,353.834 152.109,354.190 151.752 C 354.547 151.396,354.959 151.226,355.107 151.374 C 355.256 151.522,355.137 151.792,354.843 151.973 C 354.400 152.247,354.402 152.336,354.855 152.497 C 355.155 152.603,355.255 152.845,355.078 153.034 C 354.901 153.222,354.608 153.136,354.425 152.841 C 354.164 152.418,353.909 152.491,353.214 153.186 C 352.730 153.670,352.452 154.185,352.597 154.330 C 352.742 154.475,353.035 154.280,353.250 153.897 C 353.464 153.514,353.856 153.203,354.120 153.206 C 354.415 153.210,354.369 153.364,354.000 153.606 C 353.501 153.934,353.492 154.059,353.945 154.352 C 354.406 154.648,354.406 154.733,353.945 154.897 C 353.628 155.009,353.548 155.239,353.755 155.445 C 353.961 155.652,354.184 155.591,354.288 155.300 C 354.547 154.576,355.116 154.687,355.317 155.500 C 355.412 155.885,355.450 155.795,355.400 155.300 C 355.347 154.764,355.531 154.400,355.855 154.400 C 356.495 154.400,356.595 153.332,355.975 153.125 C 355.323 152.908,355.236 150.822,355.852 150.205 C 356.490 149.567,356.554 149.200,356.027 149.200 C 355.822 149.200,355.543 149.551,355.406 149.980 M46.545 151.800 C 46.671 152.130,47.051 152.400,47.387 152.400 C 47.724 152.400,48.000 152.670,48.000 153.000 C 48.000 153.330,47.936 153.600,47.858 153.600 C 47.618 153.600,45.600 151.651,45.600 151.419 C 45.600 150.942,46.328 151.236,46.545 151.800 M46.980 153.417 C 47.586 154.070,47.981 154.257,48.086 153.942 C 48.195 153.614,48.553 153.753,49.158 154.358 C 49.658 154.858,49.948 155.385,49.803 155.530 C 49.658 155.675,49.367 155.484,49.155 155.106 C 48.891 154.633,48.394 154.463,47.564 154.560 C 46.214 154.717,45.112 153.894,45.460 152.988 C 45.762 152.200,45.884 152.234,46.980 153.417 M352.318 155.486 C 352.415 155.989,352.631 156.400,352.800 156.400 C 352.969 156.400,353.185 155.989,353.282 155.486 C 353.406 154.834,353.268 154.571,352.800 154.571 C 352.332 154.571,352.194 154.834,352.318 155.486 M121.200 165.200 C 121.200 166.078,124.181 169.200,125.020 169.200 C 126.393 169.200,127.359 166.989,126.183 166.538 C 125.312 166.204,125.059 166.601,125.721 167.264 C 126.255 167.798,125.783 168.800,124.997 168.800 C 124.360 168.800,122.000 166.012,122.000 165.260 C 122.000 164.787,121.820 164.400,121.600 164.400 C 121.380 164.400,121.200 164.760,121.200 165.200 M122.781 164.812 C 122.361 165.072,122.583 165.479,123.746 166.575 C 125.416 168.150,125.686 168.289,125.345 167.400 C 125.218 167.070,124.941 166.800,124.729 166.800 C 124.516 166.800,124.613 166.530,124.943 166.200 C 125.273 165.870,125.736 165.600,125.971 165.600 C 126.612 165.600,126.488 164.920,125.800 164.655 C 125.435 164.515,125.200 164.655,125.200 165.013 C 125.200 165.336,125.020 165.600,124.800 165.600 C 124.580 165.600,124.400 165.439,124.400 165.243 C 124.400 164.699,123.396 164.432,122.781 164.812 M274.900 164.695 C 274.217 164.930,274.267 165.600,274.967 165.600 C 275.278 165.600,275.625 165.825,275.736 166.100 C 275.889 166.476,276.044 166.452,276.363 166.000 C 276.629 165.625,276.790 165.580,276.794 165.880 C 276.797 166.144,276.486 166.536,276.103 166.750 C 275.720 166.965,275.530 167.264,275.681 167.415 C 275.966 167.699,278.000 165.726,278.000 165.165 C 278.000 164.470,277.050 164.317,276.595 164.939 C 276.009 165.741,275.701 165.776,275.529 165.061 C 275.458 164.765,275.175 164.600,274.900 164.695 M278.854 165.087 C 278.800 165.970,276.316 168.800,275.594 168.800 C 275.386 168.800,275.278 168.260,275.355 167.600 C 275.499 166.368,275.329 166.222,274.233 166.643 C 273.207 167.037,273.444 168.093,274.500 167.831 C 274.995 167.708,275.175 167.711,274.900 167.837 C 274.152 168.180,274.296 168.713,275.215 169.005 C 276.382 169.375,279.332 166.411,279.085 165.117 C 278.910 164.204,278.909 164.204,278.854 165.087 M124.226 166.307 C 124.078 166.456,123.789 166.312,123.584 165.988 C 122.987 165.043,123.144 164.687,123.848 165.390 C 124.204 165.747,124.374 166.159,124.226 166.307 M95.600 181.620 C 95.600 182.346,98.334 184.890,98.879 184.672 C 99.305 184.501,99.305 184.457,98.881 184.432 C 98.201 184.390,96.400 182.437,96.400 181.742 C 96.400 181.444,96.220 181.200,96.000 181.200 C 95.780 181.200,95.600 181.389,95.600 181.620 M286.100 189.823 C 285.511 190.463,285.462 190.800,285.957 190.800 C 286.298 190.800,286.937 189.596,286.709 189.383 C 286.649 189.327,286.375 189.525,286.100 189.823 M284.292 194.087 C 283.150 195.069,282.913 195.600,283.617 195.600 C 284.271 195.600,285.703 194.110,285.535 193.605 C 285.442 193.326,284.961 193.512,284.292 194.087 M285.200 195.200 C 285.200 195.420,285.470 195.600,285.800 195.600 C 286.130 195.600,286.400 195.420,286.400 195.200 C 286.400 194.980,286.130 194.800,285.800 194.800 C 285.470 194.800,285.200 194.980,285.200 195.200 M333.600 385.200 C 333.600 385.420,333.960 385.600,334.400 385.600 C 334.840 385.600,335.200 385.420,335.200 385.200 C 335.200 384.980,334.840 384.800,334.400 384.800 C 333.960 384.800,333.600 384.980,333.600 385.200 M315.345 395.000 C 315.218 395.330,315.218 395.870,315.345 396.200 C 315.485 396.565,315.345 396.800,314.987 396.800 C 314.664 396.800,314.400 397.089,314.400 397.443 C 314.400 397.834,314.623 398.000,314.968 397.868 C 315.811 397.544,317.892 399.572,317.173 400.016 C 316.871 400.203,316.763 400.496,316.933 400.667 C 317.331 401.064,318.049 399.957,317.813 399.312 C 317.714 399.043,317.902 398.556,318.229 398.229 C 318.556 397.902,319.043 397.714,319.312 397.813 C 319.957 398.049,321.064 397.331,320.667 396.933 C 320.496 396.763,320.203 396.871,320.016 397.173 C 319.684 397.711,318.050 396.383,317.422 395.065 C 317.284 394.776,317.122 394.751,316.993 395.000 C 316.385 396.179,316.011 396.542,315.722 396.234 C 315.545 396.045,315.625 395.810,315.900 395.712 C 316.501 395.497,316.574 394.400,315.987 394.400 C 315.761 394.400,315.471 394.670,315.345 395.000 M320.000 395.029 C 320.000 395.154,320.270 395.527,320.600 395.857 C 321.251 396.508,321.333 396.411,320.957 395.433 C 320.729 394.838,320.000 394.530,320.000 395.029 M318.000 396.400 L 318.800 397.200 318.000 398.000 L 317.200 398.800 316.400 398.000 C 315.636 397.236,315.632 397.165,316.300 396.433 C 317.187 395.462,317.064 395.464,318.000 396.400 M316.578 396.835 C 316.166 397.502,317.093 398.267,317.645 397.715 C 318.107 397.253,317.818 396.400,317.200 396.400 C 317.006 396.400,316.726 396.596,316.578 396.835 M101.743 407.000 C 102.073 407.330,102.515 407.600,102.725 407.600 C 102.935 407.600,103.201 407.960,103.316 408.400 C 103.531 409.223,104.400 409.529,104.400 408.781 C 104.400 408.181,102.390 406.400,101.713 406.400 C 101.233 406.400,101.237 406.495,101.743 407.000 M119.200 419.400 C 119.200 419.730,119.380 420.000,119.600 420.000 C 119.820 420.000,120.000 419.730,120.000 419.400 C 120.000 419.070,119.820 418.800,119.600 418.800 C 119.380 418.800,119.200 419.070,119.200 419.400 " stroke="none" fill="#786c6c" fill-rule="evenodd"></path><path id="path4" d="M160.000 2.617 C 160.000 5.454,160.579 6.679,161.489 5.769 C 162.554 4.704,162.155 0.000,161.000 0.000 C 160.035 0.000,160.000 0.092,160.000 2.617 M165.206 2.700 C 165.213 5.672,165.707 7.046,166.394 6.000 C 167.208 4.760,166.895 0.000,166.000 0.000 C 165.278 0.000,165.201 0.265,165.206 2.700 M168.000 2.800 C 168.000 4.400,168.171 5.600,168.400 5.600 C 168.629 5.600,168.800 4.400,168.800 2.800 C 168.800 1.200,168.629 0.000,168.400 0.000 C 168.171 0.000,168.000 1.200,168.000 2.800 M232.134 2.800 C 232.134 4.450,232.205 5.125,232.291 4.300 C 232.378 3.475,232.378 2.125,232.291 1.300 C 232.205 0.475,232.134 1.150,232.134 2.800 M233.600 2.629 C 233.600 5.439,234.455 7.189,235.230 5.965 C 236.142 4.525,235.663 0.000,234.600 0.000 C 233.635 0.000,233.600 0.091,233.600 2.629 M238.806 2.700 C 238.813 5.917,239.209 6.848,240.164 5.893 C 241.344 4.713,241.054 0.000,239.800 0.000 C 238.831 0.000,238.800 0.085,238.806 2.700 M131.429 21.429 C 130.917 21.941,130.841 22.214,131.181 22.327 C 131.812 22.537,132.537 21.812,132.327 21.181 C 132.214 20.841,131.941 20.917,131.429 21.429 M268.000 21.357 C 268.000 21.664,268.285 22.024,268.633 22.157 C 269.778 22.597,270.002 22.412,269.307 21.600 C 268.507 20.665,268.000 20.571,268.000 21.357 M321.200 48.200 C 321.200 48.530,321.380 48.800,321.600 48.800 C 321.820 48.800,322.000 48.530,322.000 48.200 C 322.000 47.870,321.820 47.600,321.600 47.600 C 321.380 47.600,321.200 47.870,321.200 48.200 M78.969 50.183 C 78.833 50.723,78.815 51.398,78.929 51.683 C 79.043 51.967,79.151 51.705,79.168 51.100 C 79.186 50.495,79.380 50.000,79.600 50.000 C 79.820 50.000,80.000 49.820,80.000 49.600 C 80.000 48.785,79.207 49.233,78.969 50.183 M320.922 49.733 C 321.075 50.136,321.200 50.811,321.200 51.233 C 321.200 51.655,321.380 52.000,321.600 52.000 C 322.248 52.000,322.057 50.400,321.322 49.671 C 320.688 49.043,320.662 49.046,320.922 49.733 M75.600 54.000 C 75.600 54.220,75.870 54.400,76.200 54.400 C 76.530 54.400,76.800 54.220,76.800 54.000 C 76.800 53.780,76.530 53.600,76.200 53.600 C 75.870 53.600,75.600 53.780,75.600 54.000 M323.600 54.000 C 323.600 54.220,323.960 54.400,324.400 54.400 C 324.840 54.400,325.200 54.220,325.200 54.000 C 325.200 53.780,324.840 53.600,324.400 53.600 C 323.960 53.600,323.600 53.780,323.600 54.000 M74.900 55.423 C 74.311 56.063,74.262 56.400,74.757 56.400 C 75.098 56.400,75.737 55.196,75.509 54.983 C 75.449 54.927,75.175 55.125,74.900 55.423 M325.206 55.071 C 325.218 55.684,325.955 56.578,326.226 56.307 C 326.374 56.159,326.204 55.747,325.848 55.390 C 325.491 55.034,325.203 54.891,325.206 55.071 M329.613 56.291 C 329.089 56.882,329.103 56.923,329.746 56.676 C 330.142 56.524,330.541 56.400,330.633 56.400 C 330.725 56.400,330.800 56.220,330.800 56.000 C 330.800 55.412,330.281 55.539,329.613 56.291 M45.232 72.473 C 45.214 72.843,44.857 73.255,44.437 73.388 C 44.017 73.521,43.573 73.894,43.450 74.215 C 43.326 74.537,42.949 74.800,42.613 74.800 C 42.276 74.800,42.000 74.980,42.000 75.200 C 42.000 75.937,42.731 75.611,44.210 74.216 C 45.017 73.455,45.584 72.600,45.470 72.316 C 45.334 71.978,45.252 72.032,45.232 72.473 M355.232 72.360 C 355.214 72.667,355.821 73.522,356.580 74.260 C 357.959 75.599,358.800 75.955,358.800 75.200 C 358.800 74.980,358.556 74.800,358.258 74.800 C 357.631 74.800,355.821 73.213,355.489 72.372 C 355.301 71.895,355.258 71.893,355.232 72.360 M359.612 72.384 C 359.288 72.589,359.144 72.878,359.293 73.026 C 359.441 73.174,359.853 73.004,360.210 72.648 C 360.913 71.944,360.557 71.787,359.612 72.384 M23.900 79.076 C 23.515 79.176,23.200 79.425,23.200 79.629 C 23.200 79.833,23.006 80.000,22.769 80.000 C 22.228 80.000,20.000 82.201,20.000 82.736 C 20.000 82.954,19.833 83.193,19.630 83.267 C 19.426 83.340,19.182 83.850,19.088 84.400 C 18.994 84.950,18.994 85.175,19.088 84.900 C 19.182 84.625,19.425 84.400,19.629 84.400 C 19.833 84.400,20.000 84.206,20.000 83.968 C 20.000 83.406,23.406 80.000,23.968 80.000 C 24.206 80.000,24.400 79.833,24.400 79.629 C 24.400 79.425,24.715 79.176,25.100 79.076 C 25.552 78.958,25.588 78.893,25.200 78.893 C 24.870 78.893,24.285 78.975,23.900 79.076 M375.900 79.088 C 376.175 79.182,376.400 79.425,376.400 79.629 C 376.400 79.833,376.569 80.000,376.776 80.000 C 377.470 80.000,380.775 83.562,381.032 84.587 C 381.308 85.683,382.000 85.978,382.000 85.000 C 382.000 84.670,381.840 84.400,381.643 84.400 C 381.447 84.400,381.171 83.938,381.029 83.372 C 380.770 82.341,378.681 80.000,378.020 80.000 C 377.825 80.000,377.607 79.833,377.533 79.630 C 377.460 79.426,376.950 79.182,376.400 79.088 C 375.850 78.994,375.625 78.994,375.900 79.088 M23.621 83.535 C 22.509 84.572,22.056 85.280,22.225 85.720 C 22.489 86.410,23.900 87.034,24.297 86.637 C 24.427 86.506,24.233 86.400,23.867 86.400 C 22.701 86.400,23.145 85.127,24.867 83.539 C 25.915 82.571,26.298 82.000,25.900 82.000 C 25.552 82.000,24.526 82.691,23.621 83.535 M26.800 82.600 C 26.800 82.930,26.980 83.200,27.200 83.200 C 27.420 83.200,27.600 82.930,27.600 82.600 C 27.600 82.270,27.420 82.000,27.200 82.000 C 26.980 82.000,26.800 82.270,26.800 82.600 M375.952 83.600 C 377.696 85.292,378.060 86.379,376.900 86.432 C 376.384 86.455,376.349 86.522,376.765 86.687 C 377.076 86.810,377.578 86.571,377.881 86.157 C 378.356 85.507,378.484 85.486,378.810 86.002 C 379.027 86.346,379.190 86.401,379.194 86.132 C 379.203 85.443,375.641 82.000,374.920 82.000 C 374.537 82.000,374.927 82.605,375.952 83.600 M25.600 83.967 C 25.600 84.168,25.825 84.424,26.100 84.535 C 26.399 84.656,26.318 84.750,25.900 84.768 C 25.440 84.789,25.211 85.109,25.232 85.700 C 25.249 86.195,25.354 86.375,25.465 86.100 C 25.576 85.825,25.922 85.600,26.233 85.600 C 26.847 85.600,26.937 85.222,26.557 84.233 C 26.297 83.554,25.600 83.360,25.600 83.967 M373.600 84.957 C 373.600 85.324,373.929 85.600,374.367 85.600 C 374.788 85.600,375.224 85.825,375.335 86.100 C 375.446 86.375,375.551 86.195,375.568 85.700 C 375.586 85.205,375.435 84.800,375.233 84.800 C 375.031 84.800,374.581 84.691,374.233 84.557 C 373.818 84.398,373.600 84.535,373.600 84.957 M19.613 86.291 C 19.089 86.882,19.103 86.923,19.746 86.676 C 20.142 86.524,20.541 86.400,20.633 86.400 C 20.725 86.400,20.800 86.220,20.800 86.000 C 20.800 85.412,20.281 85.539,19.613 86.291 M30.340 140.000 C 31.476 141.189,32.545 141.741,31.529 140.614 C 31.238 140.292,30.768 139.752,30.484 139.414 C 30.201 139.076,29.794 138.800,29.581 138.800 C 29.368 138.800,29.709 139.340,30.340 140.000 M27.600 140.942 C 27.600 141.317,29.673 143.261,29.867 143.067 C 29.989 142.944,29.593 142.384,28.986 141.822 C 27.929 140.843,27.600 140.634,27.600 140.942 M29.613 144.291 C 29.089 144.882,29.103 144.923,29.746 144.676 C 30.142 144.524,30.541 144.400,30.633 144.400 C 30.725 144.400,30.800 144.220,30.800 144.000 C 30.800 143.412,30.281 143.539,29.613 144.291 M44.400 149.429 C 44.400 149.554,44.646 149.904,44.948 150.205 C 45.564 150.822,45.477 152.908,44.825 153.125 C 44.205 153.332,44.305 154.400,44.945 154.400 C 45.269 154.400,45.453 154.764,45.400 155.300 C 45.350 155.795,45.388 155.885,45.483 155.500 C 45.684 154.685,46.244 154.579,46.535 155.300 C 46.696 155.700,46.743 155.700,46.768 155.300 C 46.822 154.449,47.535 154.750,47.718 155.700 L 47.891 156.600 47.946 155.700 C 47.994 154.902,48.791 154.346,48.806 155.100 C 48.827 156.140,49.548 156.509,50.229 155.829 C 50.909 155.148,50.540 154.427,49.500 154.406 C 49.335 154.403,49.200 154.156,49.200 153.858 C 49.200 153.115,47.509 151.352,46.483 151.026 C 46.020 150.879,45.530 150.408,45.394 149.980 C 45.172 149.282,44.400 148.854,44.400 149.429 M355.406 149.980 C 355.270 150.408,354.770 150.882,354.295 151.033 C 353.308 151.346,351.200 153.333,351.200 153.949 C 351.200 154.175,350.897 154.530,350.528 154.736 C 349.939 155.066,349.928 155.185,350.439 155.696 C 350.942 156.199,351.096 156.202,351.552 155.714 C 351.843 155.402,351.963 155.029,351.819 154.885 C 351.674 154.741,351.389 154.888,351.184 155.212 C 350.980 155.535,350.809 155.615,350.806 155.389 C 350.803 155.163,351.160 154.670,351.600 154.293 C 352.040 153.916,352.400 153.336,352.400 153.004 C 352.400 152.672,352.657 152.400,352.971 152.400 C 353.286 152.400,353.834 152.109,354.190 151.752 C 354.547 151.396,354.959 151.226,355.107 151.374 C 355.256 151.522,355.137 151.792,354.843 151.973 C 354.400 152.247,354.402 152.336,354.855 152.497 C 355.155 152.603,355.255 152.845,355.078 153.034 C 354.901 153.222,354.608 153.136,354.425 152.841 C 354.164 152.418,353.909 152.491,353.214 153.186 C 352.730 153.670,352.452 154.185,352.597 154.330 C 352.742 154.475,353.035 154.280,353.250 153.897 C 353.464 153.514,353.856 153.203,354.120 153.206 C 354.415 153.210,354.369 153.364,354.000 153.606 C 353.501 153.934,353.492 154.059,353.945 154.352 C 354.406 154.648,354.406 154.733,353.945 154.897 C 353.628 155.009,353.548 155.239,353.755 155.445 C 353.961 155.652,354.184 155.591,354.288 155.300 C 354.547 154.576,355.116 154.687,355.317 155.500 C 355.412 155.885,355.450 155.795,355.400 155.300 C 355.347 154.764,355.531 154.400,355.855 154.400 C 356.495 154.400,356.595 153.332,355.975 153.125 C 355.323 152.908,355.236 150.822,355.852 150.205 C 356.490 149.567,356.554 149.200,356.027 149.200 C 355.822 149.200,355.543 149.551,355.406 149.980 M46.545 151.800 C 46.671 152.130,47.051 152.400,47.387 152.400 C 47.724 152.400,48.000 152.670,48.000 153.000 C 48.000 153.330,47.936 153.600,47.858 153.600 C 47.618 153.600,45.600 151.651,45.600 151.419 C 45.600 150.942,46.328 151.236,46.545 151.800 M46.980 153.417 C 47.586 154.070,47.981 154.257,48.086 153.942 C 48.195 153.614,48.553 153.753,49.158 154.358 C 49.658 154.858,49.948 155.385,49.803 155.530 C 49.658 155.675,49.367 155.484,49.155 155.106 C 48.891 154.633,48.394 154.463,47.564 154.560 C 46.214 154.717,45.112 153.894,45.460 152.988 C 45.762 152.200,45.884 152.234,46.980 153.417 M352.318 155.486 C 352.415 155.989,352.631 156.400,352.800 156.400 C 352.969 156.400,353.185 155.989,353.282 155.486 C 353.406 154.834,353.268 154.571,352.800 154.571 C 352.332 154.571,352.194 154.834,352.318 155.486 M121.200 165.200 C 121.200 166.078,124.181 169.200,125.020 169.200 C 126.393 169.200,127.359 166.989,126.183 166.538 C 125.312 166.204,125.059 166.601,125.721 167.264 C 126.255 167.798,125.783 168.800,124.997 168.800 C 124.360 168.800,122.000 166.012,122.000 165.260 C 122.000 164.787,121.820 164.400,121.600 164.400 C 121.380 164.400,121.200 164.760,121.200 165.200 M122.781 164.812 C 122.361 165.072,122.583 165.479,123.746 166.575 C 125.416 168.150,125.686 168.289,125.345 167.400 C 125.218 167.070,124.941 166.800,124.729 166.800 C 124.516 166.800,124.613 166.530,124.943 166.200 C 125.273 165.870,125.736 165.600,125.971 165.600 C 126.612 165.600,126.488 164.920,125.800 164.655 C 125.435 164.515,125.200 164.655,125.200 165.013 C 125.200 165.336,125.020 165.600,124.800 165.600 C 124.580 165.600,124.400 165.439,124.400 165.243 C 124.400 164.699,123.396 164.432,122.781 164.812 M274.900 164.695 C 274.217 164.930,274.267 165.600,274.967 165.600 C 275.278 165.600,275.625 165.825,275.736 166.100 C 275.889 166.476,276.044 166.452,276.363 166.000 C 276.629 165.625,276.790 165.580,276.794 165.880 C 276.797 166.144,276.486 166.536,276.103 166.750 C 275.720 166.965,275.530 167.264,275.681 167.415 C 275.966 167.699,278.000 165.726,278.000 165.165 C 278.000 164.470,277.050 164.317,276.595 164.939 C 276.009 165.741,275.701 165.776,275.529 165.061 C 275.458 164.765,275.175 164.600,274.900 164.695 M278.854 165.087 C 278.800 165.970,276.316 168.800,275.594 168.800 C 275.386 168.800,275.278 168.260,275.355 167.600 C 275.499 166.368,275.329 166.222,274.233 166.643 C 273.207 167.037,273.444 168.093,274.500 167.831 C 274.995 167.708,275.175 167.711,274.900 167.837 C 274.152 168.180,274.296 168.713,275.215 169.005 C 276.382 169.375,279.332 166.411,279.085 165.117 C 278.910 164.204,278.909 164.204,278.854 165.087 M124.226 166.307 C 124.078 166.456,123.789 166.312,123.584 165.988 C 122.987 165.043,123.144 164.687,123.848 165.390 C 124.204 165.747,124.374 166.159,124.226 166.307 M95.600 181.620 C 95.600 182.346,98.334 184.890,98.879 184.672 C 99.305 184.501,99.305 184.457,98.881 184.432 C 98.201 184.390,96.400 182.437,96.400 181.742 C 96.400 181.444,96.220 181.200,96.000 181.200 C 95.780 181.200,95.600 181.389,95.600 181.620 M286.100 189.823 C 285.511 190.463,285.462 190.800,285.957 190.800 C 286.298 190.800,286.937 189.596,286.709 189.383 C 286.649 189.327,286.375 189.525,286.100 189.823 M284.292 194.087 C 283.150 195.069,282.913 195.600,283.617 195.600 C 284.271 195.600,285.703 194.110,285.535 193.605 C 285.442 193.326,284.961 193.512,284.292 194.087 M285.200 195.200 C 285.200 195.420,285.470 195.600,285.800 195.600 C 286.130 195.600,286.400 195.420,286.400 195.200 C 286.400 194.980,286.130 194.800,285.800 194.800 C 285.470 194.800,285.200 194.980,285.200 195.200 M333.600 385.200 C 333.600 385.420,333.960 385.600,334.400 385.600 C 334.840 385.600,335.200 385.420,335.200 385.200 C 335.200 384.980,334.840 384.800,334.400 384.800 C 333.960 384.800,333.600 384.980,333.600 385.200 M315.345 395.000 C 315.218 395.330,315.218 395.870,315.345 396.200 C 315.485 396.565,315.345 396.800,314.987 396.800 C 314.664 396.800,314.400 397.089,314.400 397.443 C 314.400 397.834,314.623 398.000,314.968 397.868 C 315.811 397.544,317.892 399.572,317.173 400.016 C 316.871 400.203,316.763 400.496,316.933 400.667 C 317.331 401.064,318.049 399.957,317.813 399.312 C 317.714 399.043,317.902 398.556,318.229 398.229 C 318.556 397.902,319.043 397.714,319.312 397.813 C 319.957 398.049,321.064 397.331,320.667 396.933 C 320.496 396.763,320.203 396.871,320.016 397.173 C 319.684 397.711,318.050 396.383,317.422 395.065 C 317.284 394.776,317.122 394.751,316.993 395.000 C 316.385 396.179,316.011 396.542,315.722 396.234 C 315.545 396.045,315.625 395.810,315.900 395.712 C 316.501 395.497,316.574 394.400,315.987 394.400 C 315.761 394.400,315.471 394.670,315.345 395.000 M320.000 395.029 C 320.000 395.154,320.270 395.527,320.600 395.857 C 321.251 396.508,321.333 396.411,320.957 395.433 C 320.729 394.838,320.000 394.530,320.000 395.029 M318.000 396.400 L 318.800 397.200 318.000 398.000 L 317.200 398.800 316.400 398.000 C 315.636 397.236,315.632 397.165,316.300 396.433 C 317.187 395.462,317.064 395.464,318.000 396.400 M316.578 396.835 C 316.166 397.502,317.093 398.267,317.645 397.715 C 318.107 397.253,317.818 396.400,317.200 396.400 C 317.006 396.400,316.726 396.596,316.578 396.835 M101.743 407.000 C 102.073 407.330,102.515 407.600,102.725 407.600 C 102.935 407.600,103.201 407.960,103.316 408.400 C 103.531 409.223,104.400 409.529,104.400 408.781 C 104.400 408.181,102.390 406.400,101.713 406.400 C 101.233 406.400,101.237 406.495,101.743 407.000 M119.200 419.400 C 119.200 419.730,119.380 420.000,119.600 420.000 C 119.820 420.000,120.000 419.730,120.000 419.400 C 120.000 419.070,119.820 418.800,119.600 418.800 C 119.380 418.800,119.200 419.070,119.200 419.400 " stroke="none" fill="#786c6c" fill-rule="evenodd"></path></g></svg>